<svg xmlns="http://www.w3.org/2000/svg" width="1502" height="288" viewBox="109 309 1502 288" role="img" aria-labelledby="title desc">
  <title id="title">Room &amp; Recourse</title>
  <desc id="desc">An open door beside a dashed threshold line and the joined Room and Recourse wordmark.</desc>
  <!-- Generated by tools/trace-lockup.py from assets/roomandrecourse.png; do not hand-edit.
       Outlines, not live text, so the lockup carries no font dependency. Colours are
       the site tokens, not the art's: see the script for the mapping. -->
  <defs>
    <linearGradient id="rr-door" x1="0" y1="0" x2="1" y2="1">
      <stop offset="0" stop-color="#e0aab5"/>
      <stop offset="1" stop-color="#a26f7c"/>
    </linearGradient>
  </defs>
  <path fill="url(#rr-door)" fill-rule="evenodd" d="M186.0 593.5C186.2 593.1 186.5 593.0 188.0 593.0C189.5 593.0 189.8 592.9 190.0 592.5C190.2 592.1 190.5 592.0 191.5 592.0C192.5 592.0 192.8 591.9 193.0 591.5C193.2 591.1 193.5 591.0 195.0 591.0C196.5 591.0 196.8 590.9 197.0 590.5C197.2 590.1 197.5 590.0 198.5 590.0C199.5 590.0 199.8 589.9 200.0 589.5C200.2 589.1 200.5 589.0 201.5 589.0C202.5 589.0 202.8 588.9 203.0 588.5C203.2 588.1 203.5 588.0 204.5 588.0C205.5 588.0 205.8 587.9 206.0 587.5C206.2 587.1 206.5 587.0 207.5 587.0C208.5 587.0 208.8 586.9 209.0 586.5C209.2 586.1 209.5 586.0 211.0 586.0C212.5 586.0 212.8 585.9 213.0 585.5C213.2 585.1 213.5 585.0 214.5 585.0C215.5 585.0 215.8 584.9 216.0 584.5C216.2 584.1 216.5 584.0 217.5 584.0C218.5 584.0 218.8 583.9 219.0 583.5C219.2 583.1 219.5 583.0 220.5 583.0C221.5 583.0 221.8 582.9 222.0 582.5C222.2 582.1 222.5 582.0 224.0 582.0C225.5 582.0 225.8 581.9 226.0 581.5C226.2 581.1 226.5 581.0 227.5 581.0C228.5 581.0 228.8 580.9 229.0 580.5C229.2 580.1 229.5 580.0 231.0 580.0C232.5 580.0 232.8 579.9 233.0 579.5C233.2 579.1 233.5 579.0 234.5 579.0C235.5 579.0 235.8 578.9 236.0 578.5C236.2 578.1 236.5 578.0 237.5 578.0C238.5 578.0 238.8 577.9 239.0 577.5C239.2 577.1 239.5 577.0 241.0 577.0C242.5 577.0 242.8 576.9 243.0 576.5C243.2 576.1 243.5 576.0 244.5 576.0C245.5 576.0 245.8 575.9 246.0 575.5C246.2 575.1 246.5 575.0 247.5 575.0C248.5 575.0 248.8 574.9 249.0 574.5C249.2 574.1 249.5 574.0 250.5 574.0C251.5 574.0 251.8 573.9 252.0 573.5C252.2 573.1 252.5 573.0 254.0 573.0C255.5 573.0 255.8 572.9 256.0 572.5C256.2 572.1 256.5 572.0 257.5 572.0C258.5 572.0 258.8 571.9 259.0 571.5C259.2 571.1 259.5 571.0 260.5 571.0C261.5 571.0 261.8 570.9 262.0 570.5C262.2 570.1 262.5 570.0 264.0 570.0C265.5 570.0 265.8 569.9 266.0 569.5C266.2 569.1 266.5 569.0 267.5 569.0C268.5 569.0 268.8 568.9 269.0 568.5C269.2 568.1 269.5 568.0 270.5 568.0C271.5 568.0 271.8 567.9 272.0 567.5C272.2 567.1 272.5 567.0 273.5 567.0C274.5 567.0 274.8 566.9 275.0 566.5C275.2 566.1 275.5 566.0 277.0 566.0C278.5 566.0 278.8 565.9 279.0 565.5C279.2 565.1 279.5 565.0 280.5 565.0C281.5 565.0 281.8 564.9 282.0 564.5C282.2 564.1 282.6 564.0 283.6 564.0C284.8 563.9 284.9 563.9 285.0 563.1C285.0 562.6 285.2 562.1 285.5 562.0C286.0 561.7 286.0 561.2 286.0 534.5C286.0 507.5 286.0 507.3 286.5 507.0C286.8 506.8 287.0 506.5 287.0 506.0C287.0 505.5 286.8 505.2 286.5 505.0C286.0 504.7 286.0 504.5 286.0 489.0C286.0 473.5 286.0 473.3 286.5 473.0C287.0 472.7 287.0 472.5 287.0 468.5C287.0 464.5 287.0 464.3 286.5 464.0C286.0 463.7 286.0 463.5 286.0 457.0C286.0 450.5 286.0 450.3 286.5 450.0C287.0 449.7 287.0 449.5 287.0 425.5C287.0 401.5 287.0 401.3 286.5 401.0C286.0 400.8 286.0 400.5 286.0 397.0C286.0 393.5 286.0 393.3 286.6 392.9L287.1 392.5L286.6 392.1L286.0 391.7L286.0 368.5C286.0 345.8 286.0 345.3 285.5 345.0C285.2 344.9 285.0 344.4 285.0 343.9C284.9 343.1 284.8 343.1 283.6 343.0C282.6 343.0 282.2 342.9 282.0 342.5C281.8 342.1 281.5 342.0 280.5 342.0C279.5 342.0 279.2 341.9 279.0 341.5C278.8 341.1 278.5 341.0 277.5 341.0C276.5 341.0 276.2 340.9 276.0 340.5C275.8 340.1 275.5 340.0 274.0 340.0C272.5 340.0 272.2 339.9 272.0 339.5C271.8 339.1 271.5 339.0 270.5 339.0C269.5 339.0 269.2 338.9 269.0 338.5C268.8 338.1 268.5 338.0 267.5 338.0C266.5 338.0 266.2 337.9 266.0 337.5C265.8 337.1 265.5 337.0 264.0 337.0C262.5 337.0 262.2 336.9 262.0 336.5C261.8 336.1 261.5 336.0 260.5 336.0C259.5 336.0 259.2 335.9 259.0 335.5C258.8 335.1 258.5 335.0 257.0 335.0C255.5 335.0 255.2 334.9 255.0 334.5C254.8 334.1 254.5 334.0 253.5 334.0C252.5 334.0 252.2 333.9 252.0 333.5C251.8 333.1 251.5 333.0 250.5 333.0C249.5 333.0 249.2 332.9 249.0 332.5C248.8 332.1 248.5 332.0 247.0 332.0C245.5 332.0 245.2 331.9 245.0 331.5C244.8 331.1 244.5 331.0 243.5 331.0C242.5 331.0 242.2 330.9 242.0 330.5C241.8 330.1 241.5 330.0 240.5 330.0C239.5 330.0 239.2 329.9 239.0 329.5C238.8 329.1 238.5 329.0 237.5 329.0C236.5 329.0 236.2 328.9 236.0 328.5C235.8 328.1 235.5 328.0 234.5 328.0C233.5 328.0 233.2 327.9 233.0 327.5C232.8 327.1 232.5 327.0 231.0 327.0C229.5 327.0 229.2 326.9 229.0 326.5C228.8 326.1 228.5 326.0 227.5 326.0C226.5 326.0 226.2 325.9 226.0 325.5C225.8 325.1 225.5 325.0 224.5 325.0C223.5 325.0 223.2 324.9 223.0 324.5C222.8 324.1 222.5 324.0 221.0 324.0C219.5 324.0 219.2 323.9 219.0 323.5C218.8 323.1 218.5 323.0 217.5 323.0C216.5 323.0 216.2 322.9 216.0 322.5C215.8 322.1 215.5 322.0 214.0 322.0C212.5 322.0 212.2 321.9 212.0 321.5C211.8 321.1 211.5 321.0 210.5 321.0C209.5 321.0 209.2 320.9 209.0 320.5C208.8 320.1 208.5 320.0 207.5 320.0C206.5 320.0 206.2 319.9 206.0 319.5C205.8 319.1 205.5 319.0 204.5 319.0C203.5 319.0 203.2 318.9 203.0 318.5C202.8 318.1 202.5 318.0 201.0 318.0C199.5 318.0 199.2 317.9 199.0 317.5C198.8 317.1 198.5 317.0 197.5 317.0C196.5 317.0 196.2 316.9 196.0 316.5C195.8 316.1 195.5 316.0 194.5 316.0C193.5 316.0 193.2 315.9 193.0 315.5C192.8 315.1 192.5 315.0 191.0 315.0C189.5 315.0 189.2 314.9 189.0 314.5C188.8 314.1 188.5 314.0 187.5 314.0C186.5 314.0 186.2 313.9 186.0 313.5C185.8 313.2 185.5 313.0 185.0 313.0C184.5 313.0 184.2 313.2 184.0 313.5C183.8 313.8 183.5 314.0 183.1 314.0C182.7 314.0 182.1 314.4 181.2 315.2L180.0 316.5L180.0 329.0L180.0 341.5L179.3 342.3L178.5 343.0L146.9 343.0C115.9 343.0 115.3 343.0 115.0 343.5C114.9 343.8 114.4 344.0 113.9 344.0L113.1 344.1L113.1 453.3L113.0 562.5L113.7 563.3C114.5 564.0 114.5 564.0 117.5 564.0L120.5 564.0L121.8 562.8L123.0 561.5L123.1 457.3L123.1 353.1L151.5 353.1L179.9 353.1L179.9 471.9C180.0 589.1 180.0 590.7 180.5 591.0C180.8 591.1 181.0 591.6 181.0 592.1C181.1 592.8 181.2 592.9 181.9 593.0C182.4 593.0 182.9 593.2 183.0 593.5C183.4 594.2 185.6 594.2 186.0 593.5ZM190.1 580.7C190.1 580.5 190.0 523.2 190.1 453.2L190.1 326.1L191.4 326.0C192.5 326.0 192.8 326.1 193.0 326.5C193.2 326.9 193.5 327.0 194.5 327.0C195.5 327.0 195.8 327.1 196.0 327.5C196.2 327.9 196.5 328.0 197.5 328.0C198.5 328.0 198.8 328.1 199.0 328.5C199.2 328.9 199.5 329.0 201.0 329.0C202.5 329.0 202.8 329.1 203.0 329.5C203.2 329.9 203.5 330.0 204.5 330.0C205.5 330.0 205.8 330.1 206.0 330.5C206.2 330.9 206.5 331.0 207.5 331.0C208.5 331.0 208.8 331.1 209.0 331.5C209.2 331.9 209.5 332.0 210.5 332.0C211.5 332.0 211.8 332.1 212.0 332.5C212.2 332.9 212.5 333.0 214.0 333.0C215.5 333.0 215.8 333.1 216.0 333.5C216.2 333.9 216.5 334.0 217.5 334.0C218.5 334.0 218.8 334.1 219.0 334.5C219.2 334.9 219.5 335.0 220.5 335.0C221.5 335.0 221.8 335.1 222.0 335.5C222.2 335.9 222.5 336.0 223.5 336.0C224.5 336.0 224.8 336.1 225.0 336.5C225.2 336.9 225.5 337.0 227.0 337.0C228.5 337.0 228.8 337.1 229.0 337.5C229.2 337.9 229.5 338.0 230.5 338.0C231.5 338.0 231.8 338.1 232.0 338.5C232.2 338.9 232.5 339.0 234.0 339.0C235.5 339.0 235.8 339.1 236.0 339.5C236.2 339.9 236.5 340.0 237.5 340.0C238.5 340.0 238.8 340.1 239.0 340.5C239.2 340.9 239.5 341.0 240.5 341.0C241.5 341.0 241.8 341.1 242.0 341.5C242.2 341.9 242.5 342.0 243.5 342.0C244.5 342.0 244.8 342.1 245.0 342.5C245.2 342.9 245.5 343.0 247.0 343.0C248.5 343.0 248.8 343.1 249.0 343.5C249.2 343.9 249.5 344.0 250.5 344.0C251.5 344.0 251.8 344.1 252.0 344.5C252.2 344.9 252.5 345.0 254.0 345.0C255.5 345.0 255.8 345.1 256.0 345.5C256.2 345.9 256.5 346.0 257.5 346.0C258.5 346.0 258.8 346.1 259.0 346.5C259.2 346.9 259.5 347.0 261.0 347.0C262.5 347.0 262.8 347.1 263.0 347.5C263.2 347.9 263.5 348.0 264.5 348.0C265.5 348.0 265.8 348.1 266.0 348.5C266.2 348.9 266.5 349.0 267.5 349.0C268.5 349.0 268.8 349.1 269.0 349.5C269.2 349.9 269.5 350.0 270.5 350.0C271.5 350.0 271.8 350.1 272.0 350.5C272.2 350.9 272.5 351.0 273.4 351.0C274.3 351.0 274.7 351.1 275.3 351.7L276.0 352.5L276.0 453.5L276.0 554.5L275.3 555.3C274.8 555.7 274.3 556.0 273.9 556.0C273.5 556.0 273.2 556.2 273.0 556.5C272.8 556.9 272.5 557.0 271.0 557.0C269.5 557.0 269.2 557.1 269.0 557.5C268.8 557.9 268.5 558.0 267.5 558.0C266.5 558.0 266.2 558.1 266.0 558.5C265.8 558.9 265.5 559.0 264.5 559.0C263.5 559.0 263.2 559.1 263.0 559.5C262.8 559.9 262.5 560.0 261.5 560.0C260.5 560.0 260.2 560.1 260.0 560.5C259.8 560.9 259.5 561.0 258.0 561.0C256.5 561.0 256.2 561.1 256.0 561.5C255.8 561.9 255.5 562.0 254.5 562.0C253.5 562.0 253.2 562.1 253.0 562.5C252.8 562.9 252.5 563.0 251.0 563.0C249.5 563.0 249.2 563.1 249.0 563.5C248.8 563.9 248.5 564.0 247.5 564.0C246.5 564.0 246.2 564.1 246.0 564.5C245.8 564.9 245.5 565.0 244.5 565.0C243.5 565.0 243.2 565.1 243.0 565.5C242.8 565.9 242.5 566.0 241.0 566.0C239.5 566.0 239.2 566.1 239.0 566.5C238.8 566.9 238.5 567.0 237.5 567.0C236.5 567.0 236.2 567.1 236.0 567.5C235.8 567.9 235.5 568.0 234.5 568.0C233.5 568.0 233.2 568.1 233.0 568.5C232.8 568.9 232.5 569.0 231.0 569.0C229.5 569.0 229.2 569.1 229.0 569.5C228.8 569.9 228.5 570.0 227.5 570.0C226.5 570.0 226.2 570.1 226.0 570.5C225.8 570.9 225.5 571.0 224.0 571.0C222.5 571.0 222.2 571.1 222.0 571.5C221.8 571.9 221.5 572.0 220.5 572.0C219.5 572.0 219.2 572.1 219.0 572.5C218.8 572.9 218.5 573.0 217.5 573.0C216.5 573.0 216.2 573.1 216.0 573.5C215.8 573.9 215.5 574.0 214.5 574.0C213.5 574.0 213.2 574.1 213.0 574.5C212.8 574.9 212.5 575.0 211.0 575.0C209.5 575.0 209.2 575.1 209.0 575.5C208.8 575.9 208.5 576.0 207.5 576.0C206.5 576.0 206.2 576.1 206.0 576.5C205.8 576.9 205.5 577.0 204.0 577.0C202.5 577.0 202.2 577.1 202.0 577.5C201.8 577.9 201.5 578.0 200.5 578.0C199.5 578.0 199.2 578.1 199.0 578.5C198.8 578.9 198.5 579.0 197.5 579.0C196.5 579.0 196.2 579.1 196.0 579.5C195.8 579.9 195.5 580.0 194.0 580.0C192.5 580.0 192.2 580.1 192.0 580.5C191.7 581.1 190.3 581.2 190.1 580.7ZM257.8 462.8C259.4 461.1 260.0 460.3 260.0 459.9C260.0 459.5 260.2 459.2 260.5 459.0C260.9 458.8 261.0 458.5 261.0 456.5C261.0 454.5 260.9 454.2 260.5 454.0C260.1 453.8 260.0 453.5 260.0 452.6C260.0 451.5 259.9 451.4 258.3 449.7C256.6 448.1 256.5 448.0 255.4 448.0C254.5 448.0 254.2 447.9 254.0 447.5C253.8 447.1 253.5 447.0 252.5 447.0C251.5 447.0 251.2 447.1 251.0 447.5C250.8 447.9 250.5 448.0 249.6 448.0C248.5 448.0 248.4 448.1 246.2 450.2L244.0 452.5L244.0 456.1C244.0 459.5 244.0 459.8 244.5 460.0C244.8 460.2 245.0 460.5 245.0 460.9C245.0 461.8 247.2 464.0 248.1 464.0C248.5 464.0 248.8 464.2 249.0 464.5C249.2 465.0 249.5 465.0 252.4 465.0L255.5 465.0L257.8 462.8Z"/>
  <path fill="#a26f7c" fill-rule="evenodd" d="M355.0 583.5C355.1 583.2 355.6 583.0 356.1 583.0L356.9 582.9L356.9 573.0L356.9 563.1L353.7 563.1L350.5 563.0L349.7 563.7L349.0 564.5L349.0 573.0L349.0 581.5L350.2 582.7C351.4 584.0 351.4 584.0 353.1 584.0C354.5 584.0 354.8 583.9 355.0 583.5ZM356.9 542.0L356.9 532.1L356.1 532.0C355.6 532.0 355.1 531.8 355.0 531.5C354.8 531.1 354.5 531.0 353.1 531.0C351.5 531.0 351.5 531.0 350.2 532.2L349.0 533.5L349.0 542.0L349.0 550.5L349.7 551.3L350.4 552.0L353.6 551.9L356.9 551.9L356.9 542.0ZM356.9 511.0L356.9 501.1L353.7 501.1L350.5 501.0L349.7 501.7L349.0 502.5L349.0 511.0L349.0 519.5L349.7 520.3L350.4 521.0L353.6 520.9L356.9 520.9L356.9 511.0ZM357.0 490.1C357.0 489.7 357.3 489.2 357.6 488.9L358.1 488.5L357.6 488.1C357.0 487.6 357.0 487.6 356.9 479.9L356.9 472.1L353.7 472.1L350.5 472.0L349.7 472.7L349.0 473.5L349.0 481.5L349.0 489.5L349.7 490.3L350.4 491.0L353.6 490.9L356.9 490.9L357.0 490.1ZM356.9 453.5L356.9 444.1L353.7 444.1L350.5 444.0L349.7 444.7L349.0 445.5L349.0 454.1C349.0 458.8 349.1 462.7 349.2 462.8C349.3 462.9 351.0 463.0 353.1 462.9L356.9 462.9L356.9 453.5ZM353.0 433.5C353.2 433.1 353.6 433.0 355.1 432.9L356.9 432.9L356.9 422.5L356.9 412.1L353.7 412.1L350.5 412.0L349.7 412.7L349.0 413.5L349.0 422.5L349.0 431.5L350.2 432.7C351.5 434.1 352.5 434.4 353.0 433.5ZM356.3 401.3L357.0 400.5L356.9 390.8L356.9 381.1L353.7 381.1L350.5 381.0L349.7 381.7L349.0 382.5L349.0 391.5L349.0 400.5L349.7 401.3C350.4 402.0 350.4 402.0 353.0 402.0C355.5 402.0 355.6 402.0 356.3 401.3ZM356.3 370.3L357.0 369.5L356.9 359.8L356.9 350.1L354.7 350.1C352.7 350.0 352.4 349.9 352.0 349.4L351.5 348.9L350.3 350.2L349.0 351.5L349.1 360.7L349.1 369.9L349.9 370.0C350.4 370.0 350.9 370.2 351.0 370.5C351.2 370.9 351.5 371.0 353.4 371.0C355.4 371.0 355.6 371.0 356.3 370.3ZM356.3 338.3L357.0 337.5L357.0 327.5L357.0 317.5L356.3 316.7C355.6 316.0 355.4 316.0 353.4 316.0C351.5 316.0 351.2 316.1 351.0 316.5C350.9 316.8 350.4 317.0 349.9 317.0L349.1 317.1L349.1 326.8L349.0 336.5L350.2 337.7L351.4 339.0L353.5 339.0C355.4 339.0 355.6 339.0 356.3 338.3Z"/>
  <path fill="#efe8ea" fill-rule="evenodd" d="M563.0 492.5C563.2 492.1 563.5 492.0 565.5 492.0C567.5 492.0 567.8 491.9 568.0 491.5C568.2 491.1 568.5 491.0 569.5 491.0C570.5 491.0 570.8 490.9 571.0 490.5C571.2 490.1 571.5 490.0 572.5 490.0C573.5 490.0 573.8 489.9 574.0 489.5C574.2 489.2 574.5 489.0 574.9 489.0C575.8 489.0 583.0 481.8 583.0 480.9C583.0 480.5 583.2 480.2 583.5 480.0C583.8 479.8 584.0 479.5 584.0 479.0C584.0 478.5 584.2 478.2 584.5 478.0C584.8 477.8 585.0 477.5 585.0 477.0C585.0 476.5 585.2 476.2 585.5 476.0C585.8 475.8 586.0 475.5 586.0 475.0C586.0 474.5 586.2 474.2 586.5 474.0C586.9 473.8 587.0 473.5 587.0 472.0C587.0 470.5 587.1 470.2 587.5 470.0C588.0 469.8 588.0 469.5 588.0 467.0C588.0 464.5 588.0 464.2 588.5 464.0C589.0 463.7 589.0 463.5 589.0 450.0C589.0 436.5 589.0 436.3 588.5 436.0C588.0 435.8 588.0 435.5 588.0 432.5C588.0 429.5 588.0 429.2 587.5 429.0C587.1 428.8 587.0 428.5 587.0 427.0C587.0 425.5 586.9 425.2 586.5 425.0C586.2 424.8 586.0 424.5 586.0 424.0C586.0 423.5 585.8 423.2 585.5 423.0C585.1 422.8 585.0 422.5 585.0 421.6C585.0 420.5 584.9 420.3 584.0 419.5C583.3 418.9 583.0 418.4 583.0 418.0C583.0 417.6 582.7 417.1 582.0 416.5C581.4 416.0 581.0 415.4 581.0 415.1C581.0 414.2 576.7 410.0 575.9 410.0C575.5 410.0 575.2 409.8 575.0 409.5C574.8 409.2 574.5 409.0 574.0 409.0C573.5 409.0 573.2 408.8 573.0 408.5C572.8 408.2 572.5 408.0 572.0 408.0C571.5 408.0 571.2 407.8 571.0 407.5C570.8 407.1 570.5 407.0 569.5 407.0C568.5 407.0 568.2 406.9 568.0 406.5C567.8 406.0 567.5 406.0 565.0 406.0C562.5 406.0 562.2 406.0 562.0 405.5C561.8 405.0 561.5 405.0 559.0 405.0C556.5 405.0 556.2 405.0 556.0 405.5C555.8 405.9 555.5 406.0 553.5 406.0C551.5 406.0 551.2 406.1 551.0 406.5C550.8 406.9 550.5 407.0 549.5 407.0C548.5 407.0 548.2 407.1 548.0 407.5C547.8 407.8 547.5 408.0 547.0 408.0C546.5 408.0 546.2 408.2 546.0 408.5C545.8 408.8 545.5 409.0 545.0 409.0C544.5 409.0 544.2 409.2 544.0 409.5C543.8 409.8 543.5 410.0 543.1 410.0C542.3 410.0 536.0 416.2 536.0 417.1C536.0 417.4 535.6 418.0 535.0 418.5C534.3 419.1 534.0 419.6 534.0 420.1C534.0 420.5 533.8 420.8 533.5 421.0C533.1 421.2 533.0 421.5 533.0 422.5C533.0 423.5 532.9 423.8 532.5 424.0C532.1 424.2 532.0 424.5 532.0 425.5C532.0 426.5 531.9 426.8 531.5 427.0C531.1 427.2 531.0 427.5 531.0 429.5C531.0 431.5 530.9 431.8 530.5 432.0C530.0 432.3 530.0 432.5 530.0 436.5C530.0 440.5 530.0 440.7 529.5 441.0C529.0 441.3 529.0 441.5 529.0 449.5C529.0 457.5 529.0 457.7 529.5 458.0C530.0 458.3 530.0 458.5 530.0 462.5C530.0 466.5 530.0 466.7 530.5 467.0C530.9 467.2 531.0 467.5 531.0 469.0C531.0 470.5 531.1 470.8 531.5 471.0C531.9 471.2 532.0 471.5 532.0 473.0C532.0 474.5 532.1 474.8 532.5 475.0C532.8 475.2 533.0 475.5 533.0 476.0C533.0 476.5 533.2 476.8 533.5 477.0C533.8 477.2 534.0 477.5 534.0 478.0C534.0 478.5 534.2 478.8 534.5 479.0C534.8 479.2 535.0 479.5 535.0 479.9C535.0 480.4 535.4 481.0 536.5 482.0C537.4 482.9 538.0 483.7 538.0 484.0C538.0 484.7 539.3 486.0 540.0 486.0C540.3 486.0 541.1 486.6 542.0 487.5C543.0 488.6 543.6 489.0 544.1 489.0C544.5 489.0 544.8 489.2 545.0 489.5C545.2 489.8 545.5 490.0 546.0 490.0C546.5 490.0 546.8 490.2 547.0 490.5C547.2 490.9 547.5 491.0 548.5 491.0C549.5 491.0 549.8 491.1 550.0 491.5C550.2 492.0 550.5 492.0 553.0 492.0C555.5 492.0 555.8 492.0 556.0 492.5C556.2 493.0 556.5 493.0 559.5 493.0C562.5 493.0 562.8 493.0 563.0 492.5ZM649.0 492.5C649.2 492.1 649.5 492.0 651.5 492.0C653.5 492.0 653.8 491.9 654.0 491.5C654.2 491.1 654.5 491.0 655.5 491.0C656.5 491.0 656.8 490.9 657.0 490.5C657.2 490.1 657.5 490.0 658.5 490.0C659.5 490.0 659.8 489.9 660.0 489.5C660.2 489.2 660.5 489.0 660.9 489.0C661.4 489.0 661.9 488.7 662.5 488.0C663.0 487.4 663.6 487.0 663.9 487.0C664.7 487.0 668.0 483.7 668.0 482.9C668.0 482.6 668.4 482.0 669.0 481.5C669.7 480.9 670.0 480.4 670.0 479.9C670.0 479.5 670.2 479.2 670.5 479.0C670.8 478.8 671.0 478.5 671.0 478.0C671.0 477.5 671.2 477.2 671.5 477.0C671.8 476.8 672.0 476.5 672.0 476.0C672.0 475.5 672.2 475.2 672.5 475.0C672.9 474.8 673.0 474.5 673.0 473.5C673.0 472.5 673.1 472.2 673.5 472.0C673.9 471.8 674.0 471.5 674.0 470.0C674.0 468.5 674.1 468.2 674.5 468.0C675.0 467.7 675.0 467.5 675.0 463.5C675.0 459.5 675.0 459.3 675.5 459.0C676.0 458.7 676.0 458.5 676.0 449.0C676.0 439.5 676.0 439.3 675.5 439.0C675.0 438.8 675.0 438.5 675.0 435.5C675.0 432.5 675.0 432.2 674.5 432.0C674.1 431.8 674.0 431.5 674.0 429.5C674.0 427.5 673.9 427.2 673.5 427.0C673.1 426.8 673.0 426.5 673.0 425.5C673.0 424.5 672.9 424.2 672.5 424.0C672.1 423.8 672.0 423.5 672.0 422.5C672.0 421.5 671.9 421.2 671.5 421.0C671.2 420.8 671.0 420.5 671.0 420.1C671.0 419.6 670.7 419.1 670.0 418.5C669.4 418.0 669.0 417.4 669.0 417.1C669.0 416.3 662.7 410.0 661.9 410.0C661.6 410.0 661.0 409.6 660.5 409.0C659.7 408.1 659.5 408.0 658.4 408.0C657.5 408.0 657.2 407.9 657.0 407.5C656.8 407.1 656.5 407.0 655.5 407.0C654.5 407.0 654.2 406.9 654.0 406.5C653.8 406.1 653.5 406.0 651.5 406.0C649.5 406.0 649.2 405.9 649.0 405.5C648.8 405.0 648.5 405.0 646.0 405.0C643.5 405.0 643.2 405.0 643.0 405.5C642.8 406.0 642.5 406.0 640.0 406.0C637.5 406.0 637.2 406.0 637.0 406.5C636.8 406.9 636.5 407.0 635.5 407.0C634.5 407.0 634.2 407.1 634.0 407.5C633.8 407.8 633.5 408.0 633.0 408.0C632.5 408.0 632.2 408.2 632.0 408.5C631.8 408.8 631.5 409.0 631.0 409.0C630.5 409.0 630.2 409.2 630.0 409.5C629.8 409.8 629.5 410.0 629.1 410.0C628.3 410.0 623.0 415.2 623.0 416.1C623.0 416.4 622.6 417.0 622.0 417.5C621.3 418.1 621.0 418.6 621.0 419.1C621.0 419.5 620.8 419.8 620.5 420.0C620.2 420.2 620.0 420.5 620.0 421.0C620.0 421.5 619.8 421.8 619.5 422.0C619.1 422.2 619.0 422.5 619.0 423.5C619.0 424.5 618.9 424.8 618.5 425.0C618.1 425.2 618.0 425.5 618.0 426.5C618.0 427.5 617.9 427.8 617.5 428.0C617.1 428.2 617.0 428.5 617.0 430.5C617.0 432.5 616.9 432.8 616.5 433.0C616.0 433.3 616.0 433.5 616.0 438.5C616.0 443.5 616.0 443.7 615.5 444.0C615.0 444.3 615.0 444.5 615.0 449.5C615.0 454.5 615.0 454.7 615.5 455.0C616.0 455.3 616.0 455.5 616.0 460.5C616.0 465.5 616.0 465.7 616.5 466.0C616.9 466.2 617.0 466.5 617.0 468.5C617.0 470.5 617.1 470.8 617.5 471.0C617.9 471.2 618.0 471.5 618.0 472.5C618.0 473.5 618.1 473.8 618.5 474.0C618.9 474.2 619.0 474.5 619.0 475.5C619.0 476.5 619.1 476.8 619.5 477.0C619.8 477.2 620.0 477.5 620.0 477.9C620.0 478.4 620.3 478.9 621.0 479.5C621.6 480.0 622.0 480.6 622.0 480.9C622.0 481.8 628.3 488.0 629.1 488.0C629.5 488.0 629.8 488.2 630.0 488.5C630.2 488.8 630.5 489.0 631.0 489.0C631.5 489.0 631.8 489.2 632.0 489.5C632.2 489.8 632.5 490.0 633.0 490.0C633.5 490.0 633.8 490.2 634.0 490.5C634.2 490.9 634.5 491.0 635.5 491.0C636.5 491.0 636.8 491.1 637.0 491.5C637.2 492.0 637.5 492.0 640.5 492.0C643.5 492.0 643.8 492.0 644.0 492.5C644.2 492.9 644.5 493.0 646.5 493.0C648.5 493.0 648.8 492.9 649.0 492.5ZM466.0 476.0L466.1 461.1L470.5 461.1L474.9 461.1L475.0 461.9C475.0 462.4 475.2 462.9 475.5 463.0C475.8 463.2 476.0 463.5 476.0 464.0C476.0 464.5 476.2 464.8 476.5 465.0C476.9 465.2 477.0 465.5 477.0 466.5C477.0 467.5 477.1 467.8 477.5 468.0C477.8 468.2 478.0 468.5 478.0 469.0C478.0 469.5 478.2 469.8 478.5 470.0C478.8 470.2 479.0 470.5 479.0 471.0C479.0 471.5 479.2 471.8 479.5 472.0C479.8 472.2 480.0 472.5 480.0 473.0C480.0 473.5 480.2 473.8 480.5 474.0C480.8 474.2 481.0 474.5 481.0 475.0C481.0 475.5 481.2 475.8 481.5 476.0C481.8 476.2 482.0 476.5 482.0 477.0C482.0 477.5 482.2 477.8 482.5 478.0C482.8 478.2 483.0 478.5 483.0 479.0C483.0 479.5 483.2 479.8 483.5 480.0C483.8 480.2 484.0 480.5 484.0 481.0C484.0 481.5 484.2 481.8 484.5 482.0C484.8 482.2 485.0 482.5 485.0 483.0C485.0 483.5 485.2 483.8 485.5 484.0C485.9 484.2 486.0 484.5 486.0 485.5C486.0 486.5 486.1 486.8 486.5 487.0C486.8 487.2 487.0 487.5 487.0 488.0C487.0 488.5 487.2 488.8 487.5 489.0C487.8 489.1 488.0 489.6 488.0 490.1L488.1 490.9L497.0 490.9L505.9 490.9L505.9 489.1C506.0 487.5 506.0 487.2 505.5 487.0C505.2 486.8 505.0 486.5 505.0 486.0C505.0 485.5 504.8 485.2 504.5 485.0C504.2 484.8 504.0 484.5 504.0 484.0C504.0 483.5 503.8 483.2 503.5 483.0C503.2 482.8 503.0 482.5 503.0 482.0C503.0 481.5 502.8 481.2 502.5 481.0C502.2 480.8 502.0 480.5 502.0 480.0C502.0 479.5 501.8 479.2 501.5 479.0C501.2 478.8 501.0 478.5 501.0 478.0C501.0 477.5 500.8 477.2 500.5 477.0C500.2 476.8 500.0 476.5 500.0 476.0C500.0 475.5 499.8 475.2 499.5 475.0C499.2 474.8 499.0 474.5 499.0 474.0C499.0 473.5 498.8 473.2 498.5 473.0C498.2 472.8 498.0 472.5 498.0 472.0C498.0 471.5 497.8 471.2 497.5 471.0C497.2 470.8 497.0 470.5 497.0 470.0C497.0 469.5 496.8 469.2 496.5 469.0C496.2 468.8 496.0 468.5 496.0 468.0C496.0 467.5 495.8 467.2 495.5 467.0C495.2 466.8 495.0 466.5 495.0 466.0C495.0 465.5 494.8 465.2 494.5 465.0C494.2 464.8 494.0 464.5 494.0 464.0C494.0 463.5 493.8 463.2 493.5 463.0C493.2 462.8 493.0 462.5 493.0 462.0C493.0 461.5 492.8 461.2 492.5 461.0C492.1 460.8 492.0 460.5 492.0 459.5C492.0 458.5 491.9 458.2 491.5 458.0C491.1 457.8 491.0 457.5 491.0 456.9C491.1 456.2 491.2 456.1 492.4 456.0C493.4 456.0 493.7 455.8 494.5 455.0C495.0 454.4 495.7 454.0 496.0 454.0C496.7 454.0 500.0 450.7 500.0 449.9C500.0 449.6 500.4 449.0 501.0 448.5C501.9 447.7 502.0 447.5 502.0 446.4C502.0 445.5 502.1 445.2 502.5 445.0C502.9 444.8 503.0 444.5 503.0 443.5C503.0 442.5 503.1 442.2 503.5 442.0C504.0 441.8 504.0 441.5 504.0 438.0C504.0 434.5 504.0 434.2 504.5 434.0C504.9 433.8 505.0 433.5 505.0 432.0C505.0 430.5 504.9 430.2 504.5 430.0C504.0 429.8 504.0 429.5 504.0 427.0C504.0 424.5 504.0 424.2 503.5 424.0C503.1 423.8 503.0 423.5 503.0 422.5C503.0 421.5 502.9 421.2 502.5 421.0C502.2 420.8 502.0 420.5 502.0 420.0C502.0 419.5 501.8 419.2 501.5 419.0C501.2 418.8 501.0 418.5 501.0 418.1C501.0 417.2 494.8 411.0 493.9 411.0C493.5 411.0 493.2 410.8 493.0 410.5C492.8 410.2 492.5 410.0 492.0 410.0C491.5 410.0 491.2 409.8 491.0 409.5C490.8 409.2 490.5 409.0 490.0 409.0C489.5 409.0 489.2 408.8 489.0 408.5C488.8 408.1 488.5 408.0 487.0 408.0C485.5 408.0 485.2 407.9 485.0 407.5C484.7 407.0 484.5 407.0 467.6 407.0L450.5 407.0L449.7 407.7L449.0 408.5L449.0 449.6C449.0 472.2 449.1 490.7 449.2 490.8C449.3 490.9 453.1 491.0 457.6 490.9L465.9 490.9L466.0 476.0ZM720.3 490.3L721.0 489.5L721.0 466.1L721.0 442.7L720.5 442.1C719.8 441.4 720.1 440.9 721.2 441.0C721.9 441.1 721.9 441.1 721.9 442.9C722.0 444.4 722.1 444.8 722.5 445.0C722.9 445.2 723.0 445.5 723.0 446.5C723.0 447.5 723.1 447.8 723.5 448.0C723.9 448.2 724.0 448.5 724.0 449.5C724.0 450.5 724.1 450.8 724.5 451.0C724.9 451.2 725.0 451.5 725.0 452.5C725.0 453.5 725.1 453.8 725.5 454.0C725.9 454.2 726.0 454.5 726.0 455.5C726.0 456.5 726.1 456.8 726.5 457.0C726.9 457.2 727.0 457.5 727.0 458.5C727.0 459.5 727.1 459.8 727.5 460.0C727.9 460.2 728.0 460.5 728.0 461.5C728.0 462.5 728.1 462.8 728.5 463.0C728.9 463.2 729.0 463.5 729.0 464.5C729.0 465.5 729.1 465.8 729.5 466.0C729.8 466.1 730.0 466.6 730.0 467.1L730.1 467.9L734.8 467.9L739.5 468.0L740.3 467.3C740.7 466.8 741.0 466.3 741.0 465.9C741.0 465.5 741.2 465.2 741.5 465.0C741.9 464.8 742.0 464.5 742.0 463.5C742.0 462.5 742.1 462.2 742.5 462.0C742.9 461.8 743.0 461.5 743.0 460.5C743.0 459.5 743.1 459.2 743.5 459.0C743.9 458.8 744.0 458.5 744.0 457.0C744.0 455.5 744.1 455.2 744.5 455.0C744.9 454.8 745.0 454.5 745.0 453.5C745.0 452.5 745.1 452.2 745.5 452.0C745.9 451.8 746.0 451.5 746.0 450.5C746.0 449.5 746.1 449.2 746.5 449.0C746.9 448.8 747.0 448.5 747.0 447.5C747.0 446.5 747.1 446.2 747.5 446.0C747.8 445.8 748.0 445.5 748.0 445.0C748.0 444.5 748.2 444.2 748.5 444.0C748.9 443.8 749.0 443.4 749.1 441.9C749.1 440.5 749.2 440.1 749.5 440.1C749.8 440.1 749.9 443.1 749.9 464.8L750.0 489.5L750.7 490.3L751.5 491.0L759.0 491.0L766.5 491.0L767.3 490.3L768.0 489.5L768.0 449.0L768.0 408.5L767.3 407.7L766.5 407.0L756.8 407.1L747.1 407.1L747.0 407.9C747.0 408.4 746.8 408.9 746.5 409.0C746.1 409.2 746.0 409.5 746.0 410.5C746.0 411.5 745.9 411.8 745.5 412.0C745.2 412.2 745.0 412.5 745.0 413.0C745.0 413.5 744.8 413.8 744.5 414.0C744.1 414.2 744.0 414.5 744.0 415.5C744.0 416.5 743.9 416.8 743.5 417.0C743.1 417.2 743.0 417.5 743.0 418.5C743.0 419.5 742.9 419.8 742.5 420.0C742.1 420.2 742.0 420.5 742.0 421.5C742.0 422.5 741.9 422.8 741.5 423.0C741.2 423.2 741.0 423.5 741.0 424.0C741.0 424.5 740.8 424.8 740.5 425.0C740.1 425.2 740.0 425.5 740.0 426.5C740.0 427.5 739.9 427.8 739.5 428.0C739.1 428.2 739.0 428.5 739.0 429.5C739.0 430.5 738.9 430.8 738.5 431.0C738.1 431.2 738.0 431.5 738.0 432.5C738.0 433.5 737.9 433.8 737.5 434.0C737.1 434.2 737.0 434.5 737.0 435.5C737.0 436.5 736.9 436.8 736.5 437.0C736.0 437.2 736.0 437.5 736.1 438.2C736.2 439.3 735.9 440.0 735.4 440.0C735.1 440.0 735.0 439.7 735.0 439.1C735.0 438.5 734.9 438.2 734.5 438.0C734.1 437.8 734.0 437.5 734.0 436.5C734.0 435.5 733.9 435.2 733.5 435.0C733.1 434.8 733.0 434.5 733.0 433.5C733.0 432.5 732.9 432.2 732.5 432.0C732.1 431.8 732.0 431.5 732.0 430.5C732.0 429.5 731.9 429.2 731.5 429.0C731.1 428.8 731.0 428.5 731.0 427.5C731.0 426.5 730.9 426.2 730.5 426.0C730.1 425.8 730.0 425.5 730.0 424.5C730.0 423.5 729.9 423.2 729.5 423.0C729.1 422.8 729.0 422.5 729.0 421.5C729.0 420.5 728.9 420.2 728.5 420.0C728.2 419.8 728.0 419.5 728.0 419.0C728.0 418.5 727.8 418.2 727.5 418.0C727.1 417.8 727.0 417.5 727.0 416.5C727.0 415.5 726.9 415.2 726.5 415.0C726.1 414.8 726.0 414.5 726.0 413.5C726.0 412.5 725.9 412.2 725.5 412.0C725.1 411.8 725.0 411.5 725.0 410.5C725.0 409.5 724.9 409.2 724.5 409.0C724.2 408.9 724.0 408.4 724.0 407.9L723.9 407.1L714.0 407.1L704.1 407.1L704.1 448.8C704.0 471.6 704.1 490.5 704.1 490.7C704.2 490.9 706.0 491.0 711.9 491.0L719.5 491.0L720.3 490.3ZM558.0 476.5C557.8 476.1 557.5 476.0 556.0 476.0C554.5 476.0 554.2 475.9 554.0 475.5C553.8 475.2 553.5 475.0 553.1 475.0C552.2 475.0 550.0 472.8 550.0 471.9C550.0 471.5 549.8 471.2 549.5 471.0C549.2 470.8 549.0 470.5 549.0 470.0C549.0 469.5 548.8 469.2 548.5 469.0C548.1 468.8 548.0 468.5 548.0 466.5C548.0 464.5 547.9 464.2 547.5 464.0C547.0 463.7 547.0 463.5 547.0 448.5C547.0 433.5 547.0 433.3 547.5 433.0C547.9 432.8 548.0 432.5 548.0 431.0C548.0 429.5 548.1 429.2 548.5 429.0C548.8 428.8 549.0 428.5 549.0 428.1C549.0 427.6 549.3 427.1 550.0 426.5C550.6 425.9 551.0 425.4 551.0 424.9C551.1 424.2 551.2 424.1 551.9 424.0C552.4 424.0 552.9 423.8 553.0 423.5C553.2 423.2 553.5 423.0 554.0 423.0C554.5 423.0 554.8 422.8 555.0 422.5C555.3 422.0 555.5 422.0 559.5 422.0C563.5 422.0 563.7 422.0 564.0 422.5C564.2 422.8 564.5 423.0 564.9 423.0C565.8 423.0 569.0 426.2 569.0 427.1C569.0 427.5 569.2 427.8 569.5 428.0C569.8 428.2 570.0 428.5 570.0 429.0C570.0 429.5 570.2 429.8 570.5 430.0C570.9 430.2 571.0 430.5 571.0 432.5C571.0 434.5 571.1 434.8 571.5 435.0C572.0 435.3 572.0 435.5 572.0 449.0C572.0 462.5 572.0 462.7 571.5 463.0C571.1 463.2 571.0 463.5 571.0 465.5C571.0 467.5 570.9 467.8 570.5 468.0C570.1 468.2 570.0 468.5 570.0 469.4C570.0 470.4 569.9 470.7 569.0 471.5C568.4 472.1 568.0 472.6 568.0 473.1C567.9 473.7 567.7 473.9 567.1 474.0C566.6 474.0 566.1 474.4 565.5 475.0C564.6 476.0 564.5 476.0 562.9 476.0C561.5 476.0 561.2 476.1 561.0 476.5C560.8 476.9 560.5 477.0 559.5 477.0C558.5 477.0 558.2 476.9 558.0 476.5ZM641.0 475.5C640.8 475.2 640.5 475.0 640.1 475.0C639.2 475.0 636.0 471.8 636.0 470.9C636.0 470.5 635.8 470.2 635.5 470.0C635.2 469.8 635.0 469.5 635.0 469.0C635.0 468.5 634.8 468.2 634.5 468.0C634.0 467.8 634.0 467.5 634.0 465.0C634.0 462.5 634.0 462.2 633.5 462.0C633.0 461.7 633.0 461.5 633.0 448.5C633.0 435.5 633.0 435.3 633.5 435.0C633.9 434.8 634.0 434.5 634.0 433.0C634.0 431.5 634.1 431.2 634.5 431.0C634.9 430.8 635.0 430.5 635.0 429.5C635.0 428.5 635.1 428.2 635.5 428.0C635.8 427.8 636.0 427.5 636.0 427.1C636.0 426.2 638.2 424.0 639.1 424.0C639.5 424.0 639.8 423.8 640.0 423.5C640.2 423.2 640.5 423.0 641.0 423.0C641.5 423.0 641.8 422.8 642.0 422.5C642.2 422.0 642.5 422.0 646.0 422.0C649.5 422.0 649.8 422.0 650.0 422.5C650.2 422.8 650.5 423.0 651.0 423.0C651.5 423.0 651.8 423.2 652.0 423.5C652.2 423.8 652.5 424.0 652.9 424.0C653.7 424.0 655.0 425.3 655.0 426.1C655.0 426.5 655.2 426.8 655.5 427.0C655.8 427.2 656.0 427.5 656.0 428.0C656.0 428.5 656.2 428.8 656.5 429.0C656.9 429.2 657.0 429.5 657.0 430.5C657.0 431.5 657.1 431.8 657.5 432.0C658.0 432.2 658.0 432.5 658.0 435.5C658.0 438.5 658.0 438.8 658.5 439.0C659.0 439.3 659.0 439.5 659.0 449.0C659.0 458.5 659.0 458.7 658.5 459.0C658.0 459.2 658.0 459.5 658.0 462.5C658.0 465.5 658.0 465.8 657.5 466.0C657.1 466.2 657.0 466.5 657.0 468.0C657.0 469.5 656.9 469.8 656.5 470.0C656.2 470.2 656.0 470.5 656.0 470.9C656.0 471.8 652.8 475.0 651.9 475.0C651.5 475.0 651.2 475.2 651.0 475.5C650.7 476.0 650.5 476.0 646.0 476.0C641.5 476.0 641.3 476.0 641.0 475.5ZM466.2 445.8C466.1 445.7 466.0 440.7 466.0 434.5L466.0 423.4L466.8 422.6L467.5 421.9L468.0 422.4C468.4 422.9 468.7 423.0 470.1 423.0C471.5 423.0 471.8 422.9 472.0 422.5C472.2 422.0 472.5 422.0 475.0 422.0C477.5 422.0 477.8 422.0 478.0 422.5C478.2 422.9 478.5 423.0 479.9 423.0L481.5 423.0L483.8 425.2C485.9 427.4 486.0 427.5 486.0 428.6C486.0 429.5 486.1 429.8 486.5 430.0C487.0 430.2 487.0 430.5 487.0 434.0C487.0 437.5 487.0 437.8 486.5 438.0C486.1 438.2 486.0 438.5 486.0 439.4C486.0 440.5 485.9 440.6 483.8 442.8L481.5 445.0L479.9 445.0C478.5 445.0 478.2 445.1 478.0 445.5C477.7 446.0 477.5 446.0 472.0 446.0C468.9 446.0 466.3 445.9 466.2 445.8Z"/>
  <path fill="#d097a3" fill-rule="evenodd" d="M872.0 491.5C872.2 491.1 872.5 491.0 874.0 491.0C875.5 491.0 875.8 490.9 876.0 490.5C876.2 490.1 876.5 490.0 877.5 490.0C878.5 490.0 878.8 489.9 879.0 489.5C879.2 489.2 879.5 489.0 879.9 489.0C880.4 489.0 880.9 488.7 881.5 488.0C882.1 487.4 882.6 487.0 883.0 487.0C883.4 487.0 884.0 486.5 885.0 485.5C885.9 484.6 886.7 484.0 887.0 484.0C887.7 484.0 890.0 486.3 890.0 487.0C890.0 487.3 890.7 488.2 891.7 489.3L893.5 491.0L901.2 490.9L908.9 490.9L909.0 489.7C909.0 488.5 909.0 488.4 907.5 487.0C906.6 486.1 906.0 485.4 906.0 485.0C906.0 484.6 905.4 483.9 904.5 483.0C903.6 482.1 903.0 481.4 903.0 481.0C903.0 480.6 902.4 479.9 901.5 479.0C900.6 478.1 900.0 477.4 900.0 477.0C900.0 476.6 899.4 475.9 898.5 475.0C897.1 473.7 897.0 473.5 897.0 472.5C897.0 471.5 897.1 471.3 898.0 470.5C898.7 469.9 899.0 469.4 899.0 468.9C899.0 468.5 899.2 468.2 899.5 468.0C899.8 467.8 900.0 467.5 900.0 467.0C900.0 466.5 900.2 466.2 900.5 466.0C900.8 465.8 901.0 465.5 901.0 465.0C901.0 464.5 901.2 464.2 901.5 464.0C901.9 463.8 902.0 463.5 902.0 462.5C902.0 461.5 902.1 461.2 902.5 461.0C902.8 460.8 903.0 460.5 903.0 460.0C903.0 459.5 903.2 459.2 903.5 459.0C903.8 458.8 904.0 458.5 904.0 458.0C904.0 457.5 904.2 457.2 904.5 457.0C904.9 456.8 905.0 456.5 905.0 455.5C905.0 454.5 905.1 454.2 905.5 454.0C905.9 453.8 906.0 453.5 906.0 452.1C906.0 450.6 905.9 450.4 905.3 449.7L904.5 449.0L899.0 449.0L893.5 449.0L892.7 449.7C892.1 450.3 892.0 450.7 892.0 451.6C892.0 452.5 891.9 452.8 891.5 453.0C891.2 453.2 891.0 453.5 891.0 454.0C891.0 454.5 890.8 454.8 890.5 455.0C890.2 455.2 890.0 455.5 890.0 456.0C890.0 456.5 889.8 456.8 889.5 457.0C889.1 457.2 889.0 457.5 889.0 458.4C889.0 459.4 888.9 459.8 888.2 460.3L887.5 461.1L885.8 459.3C884.7 458.2 884.0 457.3 884.0 457.0C884.0 456.7 882.9 455.4 881.0 453.5C879.0 451.5 878.0 450.4 878.0 450.0C878.0 449.6 877.6 449.0 877.0 448.5C876.2 447.7 876.0 447.4 876.0 446.8C876.1 446.3 876.3 446.1 876.9 446.0C877.4 446.0 877.9 445.6 878.5 445.0C879.1 444.4 879.7 444.0 880.0 444.0C880.4 444.0 881.2 443.3 882.5 442.0C883.9 440.6 884.6 440.0 885.1 440.0C885.7 439.9 885.9 439.7 886.0 439.1C886.0 438.6 886.5 438.0 887.5 437.0C888.6 436.0 889.0 435.4 889.0 434.9C889.0 434.5 889.2 434.2 889.5 434.0C889.9 433.8 890.0 433.5 890.0 432.5C890.0 431.5 890.1 431.2 890.5 431.0C891.0 430.7 891.0 430.5 891.0 426.0C891.0 421.5 891.0 421.3 890.5 421.0C890.1 420.8 890.0 420.5 890.0 419.5C890.0 418.5 889.9 418.2 889.5 418.0C889.2 417.8 889.0 417.5 889.0 417.0C889.0 416.5 888.8 416.2 888.5 416.0C888.2 415.8 888.0 415.5 888.0 415.1C888.0 414.6 887.2 413.7 884.8 411.2C881.6 408.0 881.5 408.0 880.4 408.0C879.5 408.0 879.2 407.9 879.0 407.5C878.8 407.1 878.5 407.0 877.5 407.0C876.5 407.0 876.2 406.9 876.0 406.5C875.7 406.0 875.5 406.0 869.0 406.0C862.5 406.0 862.3 406.0 862.0 406.5C861.8 406.9 861.5 407.0 860.5 407.0C859.5 407.0 859.2 407.1 859.0 407.5C858.8 407.8 858.5 408.0 858.1 408.0C857.6 408.0 857.1 408.3 856.5 409.0C856.0 409.6 855.4 410.0 855.1 410.0C854.3 410.0 851.0 413.3 851.0 414.1C851.0 414.4 850.6 415.0 850.0 415.5C849.1 416.3 849.0 416.5 849.0 417.6C849.0 418.5 848.9 418.8 848.5 419.0C848.1 419.2 848.0 419.5 848.0 420.5C848.0 421.5 847.9 421.8 847.5 422.0C847.0 422.2 847.0 422.5 847.0 426.0C847.0 429.5 847.0 429.8 847.5 430.0C847.9 430.2 848.0 430.5 848.0 431.5C848.0 432.5 848.1 432.8 848.5 433.0C848.8 433.2 849.0 433.5 849.0 434.0C849.0 434.5 849.2 434.8 849.5 435.0C849.8 435.2 850.0 435.5 850.0 436.0C850.0 436.5 850.2 436.8 850.5 437.0C850.8 437.2 851.0 437.5 851.0 438.0C851.0 438.5 851.2 438.8 851.5 439.0C851.8 439.2 852.0 439.5 852.0 439.9C852.0 440.4 852.4 441.0 853.5 442.0L855.0 443.5L853.8 444.7C853.0 445.5 852.3 446.0 851.9 446.0C851.6 446.0 851.0 446.4 850.5 447.0C850.0 447.6 849.4 448.0 849.1 448.0C848.3 448.0 845.0 451.3 845.0 452.0C845.0 452.3 844.4 453.1 843.5 454.0C842.4 455.0 842.0 455.6 842.0 456.1C842.0 456.5 841.8 456.8 841.5 457.0C841.1 457.2 841.0 457.5 841.0 458.5C841.0 459.5 840.9 459.8 840.5 460.0C840.1 460.2 840.0 460.5 840.0 462.0C840.0 463.5 839.9 463.8 839.5 464.0C839.0 464.2 839.0 464.5 839.0 467.0C839.0 469.5 839.0 469.8 839.5 470.0C839.9 470.2 840.0 470.5 840.0 472.5C840.0 474.5 840.1 474.8 840.5 475.0C840.9 475.2 841.0 475.5 841.0 477.0C841.0 478.5 841.1 478.8 841.5 479.0C841.8 479.2 842.0 479.5 842.0 479.9C842.0 480.4 842.3 480.9 843.0 481.5C843.6 482.0 844.0 482.6 844.0 482.9C844.0 483.7 846.3 486.0 847.0 486.0C847.3 486.0 848.1 486.6 849.0 487.5C850.0 488.6 850.6 489.0 851.1 489.0C851.5 489.0 851.8 489.2 852.0 489.5C852.2 489.9 852.5 490.0 853.5 490.0C854.5 490.0 854.8 490.1 855.0 490.5C855.2 490.9 855.5 491.0 856.5 491.0C857.5 491.0 857.8 491.1 858.0 491.5C858.3 492.0 858.5 492.0 865.0 492.0C871.5 492.0 871.7 492.0 872.0 491.5ZM862.0 477.5C861.8 477.2 861.5 477.0 861.1 477.0C860.2 477.0 856.0 472.8 856.0 471.9C856.0 471.5 855.8 471.2 855.5 471.0C855.0 470.8 855.0 470.5 855.0 467.0C855.0 463.5 855.0 463.2 855.5 463.0C855.8 462.8 856.0 462.5 856.0 462.0C856.0 461.5 856.2 461.2 856.5 461.0C856.8 460.8 857.0 460.5 857.0 460.1C857.0 459.3 862.2 454.0 863.0 454.0C863.7 454.0 865.0 455.3 865.0 456.0C865.0 456.3 865.9 457.4 867.5 459.0C869.1 460.6 870.0 461.7 870.0 462.0C870.0 462.3 870.7 463.3 872.0 464.5C873.3 465.8 874.0 466.7 874.0 467.0C874.0 467.3 874.7 468.2 876.0 469.5C877.9 471.3 878.0 471.5 878.0 472.5C878.0 473.4 877.9 473.7 876.3 475.3C874.6 476.9 874.5 477.0 873.4 477.0C872.5 477.0 872.2 477.1 872.0 477.5C871.7 478.0 871.5 478.0 867.0 478.0C862.5 478.0 862.3 478.0 862.0 477.5ZM866.2 435.7C865.4 434.9 865.0 434.3 865.0 433.9C865.0 433.5 864.8 433.2 864.5 433.0C864.2 432.8 864.0 432.5 864.0 432.0C864.0 431.5 863.8 431.2 863.5 431.0C863.2 430.8 863.0 430.5 863.0 430.0C863.0 429.5 862.8 429.2 862.5 429.0C862.0 428.8 862.0 428.5 862.0 426.0C862.0 423.5 862.0 423.2 862.5 423.0C862.8 422.8 863.0 422.5 863.0 422.1C863.0 421.3 864.3 420.0 865.1 420.0C865.5 420.0 865.8 419.8 866.0 419.5C866.2 419.0 866.5 419.0 869.4 419.0L872.5 419.0L874.3 420.7C875.5 422.0 876.0 422.7 876.0 423.1C876.0 423.5 876.2 423.8 876.5 424.0C876.9 424.2 877.0 424.5 877.0 425.5C877.0 426.5 876.9 426.8 876.5 427.0C876.1 427.2 876.0 427.5 876.0 428.5C876.0 429.5 875.9 429.8 875.5 430.0C875.2 430.2 875.0 430.5 875.0 430.9C875.0 431.8 870.8 436.0 869.9 436.0C869.5 436.0 869.2 436.2 869.0 436.5C868.5 437.4 867.5 437.1 866.2 435.7Z"/>
  <path fill="#e0aab5" fill-rule="evenodd" d="M1250.0 492.5C1250.2 492.1 1250.5 492.0 1252.5 492.0C1254.5 492.0 1254.8 491.9 1255.0 491.5C1255.2 491.1 1255.5 491.0 1257.0 491.0C1258.5 491.0 1258.8 490.9 1259.0 490.5C1259.2 490.2 1259.5 490.0 1260.0 490.0C1260.5 490.0 1260.8 489.8 1261.0 489.5C1261.2 489.2 1261.5 489.0 1261.9 489.0C1262.4 489.0 1262.9 488.7 1263.5 488.0C1264.0 487.4 1264.6 487.0 1264.9 487.0C1265.7 487.0 1270.0 482.7 1270.0 481.9C1270.0 481.6 1270.4 481.0 1271.0 480.5C1271.7 479.9 1272.0 479.4 1272.0 478.9C1272.0 478.5 1272.2 478.2 1272.5 478.0C1272.8 477.8 1273.0 477.5 1273.0 477.0C1273.0 476.5 1273.2 476.2 1273.5 476.0C1273.9 475.8 1274.0 475.5 1274.0 474.5C1274.0 473.5 1274.1 473.2 1274.5 473.0C1274.9 472.8 1275.0 472.5 1275.0 471.0C1275.0 469.5 1275.1 469.2 1275.5 469.0C1275.9 468.8 1276.0 468.5 1276.0 466.5C1276.0 464.5 1276.1 464.2 1276.5 464.0C1277.0 463.7 1277.0 463.5 1277.0 449.5C1277.0 435.5 1277.0 435.3 1276.5 435.0C1276.0 434.8 1276.0 434.5 1276.0 432.0C1276.0 429.5 1276.0 429.2 1275.5 429.0C1275.1 428.8 1275.0 428.5 1275.0 427.0C1275.0 425.5 1274.9 425.2 1274.5 425.0C1274.2 424.8 1274.0 424.5 1274.0 424.0C1274.0 423.5 1273.8 423.2 1273.5 423.0C1273.1 422.8 1273.0 422.5 1273.0 421.6C1273.0 420.5 1272.9 420.3 1272.0 419.5C1271.3 418.9 1271.0 418.4 1271.0 418.0C1271.0 417.6 1270.7 417.1 1270.0 416.5C1269.4 416.0 1269.0 415.4 1269.0 415.1C1269.0 414.3 1265.7 411.0 1264.9 411.0C1264.6 411.0 1264.0 410.6 1263.5 410.0C1262.9 409.3 1262.4 409.0 1261.9 409.0C1261.5 409.0 1261.2 408.8 1261.0 408.5C1260.8 408.2 1260.5 408.0 1260.0 408.0C1259.5 408.0 1259.2 407.8 1259.0 407.5C1258.8 407.1 1258.5 407.0 1257.0 407.0C1255.5 407.0 1255.2 406.9 1255.0 406.5C1254.8 406.0 1254.5 406.0 1251.5 406.0C1248.5 406.0 1248.2 406.0 1248.0 405.5C1247.8 405.1 1247.5 405.0 1246.0 405.0C1244.5 405.0 1244.2 405.1 1244.0 405.5C1243.8 406.0 1243.5 406.0 1241.0 406.0C1238.5 406.0 1238.2 406.0 1238.0 406.5C1237.8 406.9 1237.5 407.0 1236.5 407.0C1235.5 407.0 1235.2 407.1 1235.0 407.5C1234.8 407.8 1234.5 408.0 1234.0 408.0C1233.5 408.0 1233.2 408.2 1233.0 408.5C1232.8 408.8 1232.5 409.0 1232.0 409.0C1231.5 409.0 1231.2 409.2 1231.0 409.5C1230.8 409.8 1230.5 410.0 1230.1 410.0C1229.2 410.0 1223.0 416.2 1223.0 417.1C1223.0 417.5 1222.8 417.8 1222.5 418.0C1222.2 418.2 1222.0 418.5 1222.0 419.0C1222.0 419.5 1221.8 419.8 1221.5 420.0C1221.2 420.2 1221.0 420.5 1221.0 421.0C1221.0 421.5 1220.8 421.8 1220.5 422.0C1220.1 422.2 1220.0 422.5 1220.0 423.5C1220.0 424.5 1219.9 424.8 1219.5 425.0C1219.1 425.2 1219.0 425.5 1219.0 426.5C1219.0 427.5 1218.9 427.8 1218.5 428.0C1218.0 428.2 1218.0 428.5 1218.0 431.0C1218.0 433.5 1218.0 433.8 1217.5 434.0C1217.0 434.3 1217.0 434.5 1217.0 449.5C1217.0 464.5 1217.0 464.7 1217.5 465.0C1218.0 465.2 1218.0 465.5 1218.0 468.0C1218.0 470.5 1218.0 470.8 1218.5 471.0C1218.9 471.2 1219.0 471.5 1219.0 472.5C1219.0 473.5 1219.1 473.8 1219.5 474.0C1219.9 474.2 1220.0 474.5 1220.0 475.5C1220.0 476.5 1220.1 476.8 1220.5 477.0C1220.8 477.2 1221.0 477.5 1221.0 478.0C1221.0 478.5 1221.2 478.8 1221.5 479.0C1221.8 479.2 1222.0 479.5 1222.0 479.9C1222.0 480.4 1222.4 481.0 1223.5 482.0C1224.4 482.9 1225.0 483.7 1225.0 484.0C1225.0 484.7 1226.3 486.0 1227.0 486.0C1227.3 486.0 1228.1 486.6 1229.0 487.5C1230.0 488.6 1230.6 489.0 1231.1 489.0C1231.5 489.0 1231.8 489.2 1232.0 489.5C1232.2 489.8 1232.5 490.0 1233.0 490.0C1233.5 490.0 1233.8 490.2 1234.0 490.5C1234.2 490.9 1234.5 491.0 1235.5 491.0C1236.5 491.0 1236.8 491.1 1237.0 491.5C1237.2 492.0 1237.5 492.0 1240.5 492.0C1243.5 492.0 1243.8 492.0 1244.0 492.5C1244.2 493.0 1244.5 493.0 1247.0 493.0C1249.5 493.0 1249.8 493.0 1250.0 492.5ZM1172.0 491.5C1172.2 491.1 1172.5 491.0 1173.5 491.0C1174.5 491.0 1174.8 490.9 1175.0 490.5C1175.2 490.1 1175.5 490.0 1176.5 490.0C1177.5 490.0 1177.8 489.9 1178.0 489.5C1178.2 489.2 1178.5 489.0 1178.9 489.0C1179.4 489.0 1180.0 488.6 1181.0 487.5C1181.9 486.6 1182.7 486.0 1183.0 486.0C1183.7 486.0 1185.0 484.7 1185.0 484.0C1185.0 483.7 1185.6 482.9 1186.5 482.0C1187.6 481.0 1188.0 480.4 1188.0 479.9C1188.0 479.5 1188.2 479.2 1188.5 479.0C1188.8 478.8 1189.0 478.5 1189.0 478.0C1189.0 477.5 1189.2 477.2 1189.5 477.0C1189.9 476.8 1190.0 476.5 1190.0 475.5C1190.0 474.5 1190.1 474.2 1190.5 474.0C1190.9 473.8 1191.0 473.5 1191.0 472.0C1191.0 470.5 1191.1 470.2 1191.5 470.0C1191.9 469.8 1192.0 469.5 1192.0 468.1C1192.0 466.6 1191.9 466.4 1191.3 465.7C1190.6 465.0 1190.4 465.0 1188.4 465.0C1186.5 465.0 1186.2 464.9 1186.0 464.5C1185.8 464.1 1185.5 464.0 1183.5 464.0C1181.5 464.0 1181.2 463.9 1181.0 463.5C1180.7 463.0 1180.5 463.0 1177.9 463.1L1175.1 463.1L1175.1 464.9C1175.0 466.4 1174.9 466.8 1174.5 467.0C1174.1 467.2 1174.0 467.5 1174.0 468.9C1174.0 470.6 1174.0 470.6 1173.0 471.5C1172.4 472.0 1172.0 472.6 1172.0 473.0C1172.0 473.7 1170.7 475.0 1169.9 475.0C1169.5 475.0 1169.2 475.2 1169.0 475.5C1168.8 475.9 1168.5 476.0 1167.0 476.0C1165.5 476.0 1165.2 476.1 1165.0 476.5C1164.8 476.9 1164.5 477.0 1163.5 477.0C1162.5 477.0 1162.2 476.9 1162.0 476.5C1161.8 476.1 1161.5 476.0 1160.0 476.0C1158.5 476.0 1158.2 475.9 1158.0 475.5C1157.8 475.2 1157.5 475.0 1157.1 475.0C1156.2 475.0 1154.0 472.8 1154.0 471.9C1154.0 471.5 1153.8 471.2 1153.5 471.0C1153.2 470.8 1153.0 470.5 1153.0 470.0C1153.0 469.5 1152.8 469.2 1152.5 469.0C1152.1 468.8 1152.0 468.5 1152.0 466.5C1152.0 464.5 1151.9 464.2 1151.5 464.0C1151.0 463.7 1151.0 463.5 1151.0 449.5C1151.0 435.5 1151.0 435.3 1151.5 435.0C1151.9 434.8 1152.0 434.5 1152.0 432.5C1152.0 430.5 1152.1 430.2 1152.5 430.0C1152.8 429.8 1153.0 429.5 1153.0 429.0C1153.0 428.5 1153.2 428.2 1153.5 428.0C1153.8 427.8 1154.0 427.5 1154.0 427.1C1154.0 426.2 1157.2 423.0 1158.1 423.0C1158.5 423.0 1158.8 422.8 1159.0 422.5C1159.2 422.1 1159.5 422.0 1160.5 422.0C1161.5 422.0 1161.8 421.9 1162.0 421.5C1162.2 421.1 1162.5 421.0 1163.5 421.0C1164.5 421.0 1164.8 421.1 1165.0 421.5C1165.2 421.9 1165.5 422.0 1167.0 422.0C1168.5 422.0 1168.8 422.1 1169.0 422.5C1169.2 422.8 1169.5 423.0 1169.9 423.0C1170.8 423.0 1173.0 425.2 1173.0 426.1C1173.0 426.5 1173.2 426.8 1173.5 427.0C1173.8 427.2 1174.0 427.5 1174.0 428.0C1174.0 428.5 1174.2 428.8 1174.5 429.0C1174.9 429.2 1175.0 429.5 1175.0 431.4C1175.0 433.4 1175.0 433.6 1175.7 434.3C1176.4 434.9 1176.6 435.0 1178.1 435.0C1179.5 435.0 1179.8 434.9 1180.0 434.5C1180.2 434.0 1180.5 434.0 1183.5 434.0C1186.5 434.0 1186.8 434.0 1187.0 433.5C1187.2 433.1 1187.6 433.0 1189.6 432.9L1191.9 432.9L1191.9 430.6C1192.0 428.5 1192.0 428.3 1191.5 428.0C1191.1 427.8 1191.0 427.5 1191.0 426.0C1191.0 424.5 1190.9 424.2 1190.5 424.0C1190.1 423.8 1190.0 423.5 1190.0 422.5C1190.0 421.5 1189.9 421.2 1189.5 421.0C1189.2 420.8 1189.0 420.5 1189.0 420.0C1189.0 419.5 1188.8 419.2 1188.5 419.0C1188.2 418.8 1188.0 418.5 1188.0 418.0C1188.0 417.5 1187.8 417.2 1187.5 417.0C1187.2 416.8 1187.0 416.5 1187.0 416.1C1187.0 415.2 1181.8 410.0 1180.9 410.0C1180.5 410.0 1180.2 409.8 1180.0 409.5C1179.8 409.2 1179.5 409.0 1179.0 409.0C1178.5 409.0 1178.2 408.8 1178.0 408.5C1177.8 408.2 1177.5 408.0 1177.0 408.0C1176.5 408.0 1176.2 407.8 1176.0 407.5C1175.8 407.1 1175.5 407.0 1174.5 407.0C1173.5 407.0 1173.2 406.9 1173.0 406.5C1172.8 406.0 1172.5 406.0 1169.5 406.0C1166.5 406.0 1166.2 406.0 1166.0 405.5C1165.8 405.1 1165.5 405.0 1163.5 405.0C1161.5 405.0 1161.2 405.1 1161.0 405.5C1160.8 406.0 1160.5 406.0 1158.0 406.0C1155.5 406.0 1155.2 406.0 1155.0 406.5C1154.8 406.9 1154.5 407.0 1153.5 407.0C1152.5 407.0 1152.2 407.1 1152.0 407.5C1151.8 407.8 1151.5 408.0 1151.0 408.0C1150.5 408.0 1150.2 408.2 1150.0 408.5C1149.8 408.8 1149.5 409.0 1149.1 409.0C1148.6 409.0 1148.1 409.3 1147.5 410.0C1147.0 410.6 1146.4 411.0 1146.1 411.0C1145.3 411.0 1141.0 415.3 1141.0 416.1C1141.0 416.4 1140.6 417.0 1140.0 417.5C1139.3 418.1 1139.0 418.6 1139.0 419.1C1139.0 419.5 1138.8 419.8 1138.5 420.0C1138.2 420.2 1138.0 420.5 1138.0 421.0C1138.0 421.5 1137.8 421.8 1137.5 422.0C1137.2 422.2 1137.0 422.5 1137.0 423.0C1137.0 423.5 1136.8 423.8 1136.5 424.0C1136.1 424.2 1136.0 424.5 1136.0 425.5C1136.0 426.5 1135.9 426.8 1135.5 427.0C1135.1 427.2 1135.0 427.5 1135.0 429.0C1135.0 430.5 1134.9 430.8 1134.5 431.0C1134.0 431.2 1134.0 431.5 1134.0 435.0C1134.0 438.5 1134.0 438.8 1133.5 439.0C1133.0 439.3 1133.0 439.5 1133.0 449.0C1133.0 458.5 1133.0 458.7 1133.5 459.0C1134.0 459.3 1134.0 459.5 1134.0 463.5C1134.0 467.5 1134.0 467.7 1134.5 468.0C1134.9 468.2 1135.0 468.5 1135.0 470.0C1135.0 471.5 1135.1 471.8 1135.5 472.0C1135.9 472.2 1136.0 472.5 1136.0 473.5C1136.0 474.5 1136.1 474.8 1136.5 475.0C1136.8 475.2 1137.0 475.5 1137.0 476.0C1137.0 476.5 1137.2 476.8 1137.5 477.0C1137.8 477.2 1138.0 477.5 1138.0 478.0C1138.0 478.5 1138.2 478.8 1138.5 479.0C1138.8 479.2 1139.0 479.5 1139.0 479.9C1139.0 480.8 1147.2 489.0 1148.1 489.0C1148.5 489.0 1148.8 489.2 1149.0 489.5C1149.2 489.8 1149.5 490.0 1150.0 490.0C1150.5 490.0 1150.8 490.2 1151.0 490.5C1151.2 490.9 1151.5 491.0 1153.0 491.0C1154.5 491.0 1154.8 491.1 1155.0 491.5C1155.3 492.0 1155.5 492.0 1163.5 492.0C1171.5 492.0 1171.7 492.0 1172.0 491.5ZM1342.0 491.5C1342.2 491.1 1342.5 491.0 1343.5 491.0C1344.5 491.0 1344.8 490.9 1345.0 490.5C1345.2 490.1 1345.5 490.0 1346.5 490.0C1347.5 490.0 1347.8 489.9 1348.0 489.5C1348.2 489.2 1348.5 489.0 1349.0 489.0C1349.5 489.0 1349.8 488.8 1350.0 488.5C1350.2 488.2 1350.5 488.0 1350.9 488.0C1351.8 488.0 1359.0 480.8 1359.0 479.9C1359.0 479.5 1359.2 479.2 1359.5 479.0C1359.8 478.8 1360.0 478.5 1360.0 478.0C1360.0 477.5 1360.2 477.2 1360.5 477.0C1360.9 476.8 1361.0 476.5 1361.0 475.5C1361.0 474.5 1361.1 474.2 1361.5 474.0C1361.9 473.8 1362.0 473.5 1362.0 472.5C1362.0 471.5 1362.1 471.2 1362.5 471.0C1363.0 470.8 1363.0 470.5 1363.0 468.0C1363.0 465.5 1363.0 465.2 1363.5 465.0C1364.0 464.7 1364.0 464.5 1364.0 436.6L1364.0 408.5L1363.3 407.7L1362.5 407.0L1354.3 407.1L1346.1 407.1L1346.1 409.9C1346.0 412.4 1345.9 412.8 1345.5 413.0C1345.0 413.3 1345.0 413.6 1345.0 422.5C1345.0 431.5 1345.0 431.7 1345.5 432.0C1346.0 432.3 1346.0 432.5 1346.0 438.0C1346.0 443.5 1346.0 443.7 1345.5 444.0C1345.0 444.2 1345.0 444.5 1345.0 447.5C1345.0 450.5 1345.0 450.8 1345.5 451.0C1346.0 451.3 1346.0 451.5 1346.0 457.0C1346.0 462.5 1346.0 462.7 1345.5 463.0C1345.0 463.2 1345.0 463.5 1345.0 466.0C1345.0 468.5 1345.0 468.8 1344.5 469.0C1344.2 469.2 1344.0 469.5 1344.0 470.0C1344.0 470.5 1343.8 470.8 1343.5 471.0C1343.2 471.2 1343.0 471.5 1343.0 471.9C1343.0 472.8 1340.8 475.0 1339.9 475.0C1339.5 475.0 1339.2 475.2 1339.0 475.5C1338.8 475.9 1338.5 476.0 1336.5 476.0C1334.5 476.0 1334.2 476.1 1334.0 476.5C1333.8 476.8 1333.5 477.0 1333.0 477.0C1332.5 477.0 1332.2 476.8 1332.0 476.5C1331.8 476.1 1331.5 476.0 1330.5 476.0C1329.5 476.0 1329.2 475.9 1329.0 475.5C1328.8 475.2 1328.5 475.0 1328.1 475.0C1327.2 475.0 1324.0 471.8 1324.0 470.9C1324.0 470.5 1323.8 470.2 1323.5 470.0C1323.0 469.7 1323.0 469.5 1323.0 464.0C1323.0 458.5 1323.0 458.3 1322.5 458.0C1322.0 457.7 1322.0 457.5 1322.0 446.5C1322.0 435.5 1322.0 435.3 1322.5 435.0C1322.9 434.8 1323.0 434.5 1323.0 432.5C1323.0 430.5 1322.9 430.2 1322.5 430.0C1322.0 429.7 1322.0 429.5 1322.0 420.0L1322.0 410.3L1322.6 409.9L1323.1 409.5L1322.6 409.1C1322.3 408.8 1322.0 408.3 1322.0 407.9L1321.9 407.1L1313.7 407.1L1305.5 407.0L1304.7 407.7L1304.0 408.5L1304.0 438.1C1304.0 467.5 1304.0 467.7 1304.5 468.0C1304.9 468.2 1305.0 468.5 1305.0 470.5C1305.0 472.5 1305.1 472.8 1305.5 473.0C1305.9 473.2 1306.0 473.5 1306.0 474.5C1306.0 475.5 1306.1 475.8 1306.5 476.0C1306.8 476.2 1307.0 476.5 1307.0 477.0C1307.0 477.5 1307.2 477.8 1307.5 478.0C1307.8 478.2 1308.0 478.5 1308.0 478.9C1308.0 479.4 1308.3 479.9 1309.0 480.5C1309.6 481.0 1310.0 481.6 1310.0 481.9C1310.0 482.7 1314.3 487.0 1315.1 487.0C1315.4 487.0 1316.0 487.4 1316.5 488.0C1317.1 488.7 1317.6 489.0 1318.1 489.0C1318.5 489.0 1318.8 489.2 1319.0 489.5C1319.2 489.9 1319.5 490.0 1320.5 490.0C1321.5 490.0 1321.8 490.1 1322.0 490.5C1322.2 490.9 1322.5 491.0 1324.0 491.0C1325.5 491.0 1325.8 491.1 1326.0 491.5C1326.3 492.0 1326.5 492.0 1334.0 492.0C1341.5 492.0 1341.7 492.0 1342.0 491.5ZM1512.0 491.5C1512.2 491.1 1512.5 491.0 1513.5 491.0C1514.5 491.0 1514.8 490.9 1515.0 490.5C1515.2 490.1 1515.5 490.0 1516.5 490.0C1517.5 490.0 1517.8 489.9 1518.0 489.5C1518.2 489.2 1518.5 489.0 1519.0 489.0C1519.5 489.0 1519.8 488.8 1520.0 488.5C1520.2 488.2 1520.5 488.0 1521.0 488.0C1521.5 488.0 1521.8 487.8 1522.0 487.5C1522.2 487.2 1522.5 487.0 1522.9 487.0C1523.7 487.0 1528.0 482.8 1528.0 481.9C1528.0 481.6 1528.4 481.0 1529.0 480.5C1529.7 479.9 1530.0 479.4 1530.0 478.9C1530.0 478.5 1530.2 478.2 1530.5 478.0C1530.8 477.8 1531.0 477.5 1531.0 477.0C1531.0 476.5 1531.2 476.2 1531.5 476.0C1531.9 475.8 1532.0 475.5 1532.0 474.0C1532.0 472.5 1532.1 472.2 1532.5 472.0C1533.0 471.7 1533.0 471.5 1533.0 466.0C1533.0 460.5 1533.0 460.3 1532.5 460.0C1532.1 459.8 1532.0 459.5 1532.0 458.0C1532.0 456.5 1531.9 456.2 1531.5 456.0C1531.2 455.8 1531.0 455.5 1531.0 455.1C1531.0 454.6 1530.6 454.0 1529.5 453.0C1528.6 452.1 1528.0 451.3 1528.0 451.0C1528.0 450.3 1526.7 449.0 1526.0 449.0C1525.7 449.0 1524.9 448.4 1524.0 447.5C1523.0 446.4 1522.4 446.0 1521.9 446.0C1521.5 446.0 1521.2 445.8 1521.0 445.5C1520.8 445.2 1520.5 445.0 1520.0 445.0C1519.5 445.0 1519.2 444.8 1519.0 444.5C1518.8 444.2 1518.5 444.0 1518.0 444.0C1517.5 444.0 1517.2 443.8 1517.0 443.5C1516.8 443.2 1516.5 443.0 1516.0 443.0C1515.5 443.0 1515.2 442.8 1515.0 442.5C1514.8 442.1 1514.5 442.0 1513.5 442.0C1512.5 442.0 1512.2 441.9 1512.0 441.5C1511.8 441.1 1511.5 441.0 1510.5 441.0C1509.5 441.0 1509.2 440.9 1509.0 440.5C1508.8 440.1 1508.5 440.0 1507.5 440.0C1506.5 440.0 1506.2 439.9 1506.0 439.5C1505.8 439.1 1505.5 439.0 1504.5 439.0C1503.5 439.0 1503.2 438.9 1503.0 438.5C1502.8 438.2 1502.5 438.0 1502.0 438.0C1501.5 438.0 1501.2 437.8 1501.0 437.5C1500.8 437.2 1500.5 437.0 1500.0 437.0C1499.5 437.0 1499.2 436.8 1499.0 436.5C1498.8 436.2 1498.5 436.0 1498.1 436.0C1497.7 436.0 1497.0 435.5 1495.7 434.3L1494.0 432.5L1494.0 429.4C1494.0 426.5 1494.0 426.2 1494.5 426.0C1494.8 425.8 1495.0 425.5 1495.0 425.1C1495.0 424.7 1495.4 424.1 1496.2 423.2C1497.4 422.1 1497.6 422.0 1498.6 422.0C1499.5 422.0 1499.8 421.9 1500.0 421.5C1500.2 421.0 1500.5 421.0 1504.0 421.0C1507.5 421.0 1507.8 421.0 1508.0 421.5C1508.2 421.9 1508.5 422.0 1509.4 422.0C1510.5 422.0 1510.6 422.1 1512.3 423.7C1513.5 425.0 1514.0 425.7 1514.0 426.1C1514.0 426.5 1514.2 426.8 1514.5 427.0C1514.9 427.2 1515.0 427.5 1515.0 428.4C1515.0 429.3 1515.1 429.7 1515.7 430.3C1516.4 431.0 1516.5 431.0 1519.1 431.0C1521.5 431.0 1521.8 431.0 1522.0 430.5C1522.2 430.1 1522.5 430.0 1524.0 430.0C1525.5 430.0 1525.8 429.9 1526.0 429.5C1526.2 429.1 1526.5 429.0 1528.4 429.0C1530.4 429.0 1530.6 429.0 1531.3 428.3C1532.1 427.4 1532.2 426.4 1531.5 426.0C1531.1 425.8 1531.0 425.5 1531.0 424.0C1531.0 422.5 1530.9 422.2 1530.5 422.0C1530.2 421.8 1530.0 421.5 1530.0 421.0C1530.0 420.5 1529.8 420.2 1529.5 420.0C1529.2 419.8 1529.0 419.5 1529.0 419.0C1529.0 418.5 1528.8 418.2 1528.5 418.0C1528.2 417.8 1528.0 417.5 1528.0 417.1C1528.0 416.6 1527.7 416.1 1527.0 415.5C1526.4 415.0 1526.0 414.4 1526.0 414.0C1526.0 413.3 1524.7 412.0 1524.0 412.0C1523.6 412.0 1523.0 411.6 1522.5 411.0C1521.9 410.3 1521.4 410.0 1520.9 410.0C1520.5 410.0 1520.2 409.8 1520.0 409.5C1519.8 409.2 1519.5 409.0 1519.0 409.0C1518.5 409.0 1518.2 408.8 1518.0 408.5C1517.8 408.2 1517.5 408.0 1517.0 408.0C1516.5 408.0 1516.2 407.8 1516.0 407.5C1515.8 407.1 1515.5 407.0 1514.0 407.0C1512.5 407.0 1512.2 406.9 1512.0 406.5C1511.8 406.0 1511.5 406.0 1509.0 406.0C1506.5 406.0 1506.2 406.0 1506.0 405.5C1505.8 405.1 1505.5 405.0 1503.5 405.0C1501.5 405.0 1501.2 405.1 1501.0 405.5C1500.8 406.0 1500.5 406.0 1498.0 406.0C1495.5 406.0 1495.2 406.0 1495.0 406.5C1494.8 406.9 1494.5 407.0 1493.5 407.0C1492.5 407.0 1492.2 407.1 1492.0 407.5C1491.8 407.8 1491.5 408.0 1491.0 408.0C1490.5 408.0 1490.2 408.2 1490.0 408.5C1489.8 408.8 1489.5 409.0 1489.0 409.0C1488.5 409.0 1488.2 409.2 1488.0 409.5C1487.8 409.8 1487.5 410.0 1487.1 410.0C1486.2 410.0 1480.0 416.2 1480.0 417.1C1480.0 417.5 1479.8 417.8 1479.5 418.0C1479.2 418.2 1479.0 418.5 1479.0 419.0C1479.0 419.5 1478.8 419.8 1478.5 420.0C1478.2 420.2 1478.0 420.5 1478.0 421.0C1478.0 421.5 1477.8 421.8 1477.5 422.0C1477.1 422.2 1477.0 422.5 1477.0 424.0C1477.0 425.5 1476.9 425.8 1476.5 426.0C1476.0 426.3 1476.0 426.5 1476.0 430.5C1476.0 434.5 1476.0 434.7 1476.5 435.0C1476.9 435.2 1477.0 435.5 1477.0 436.5C1477.0 437.5 1477.1 437.8 1477.5 438.0C1477.9 438.2 1478.0 438.5 1478.0 439.5C1478.0 440.5 1478.1 440.8 1478.5 441.0C1478.8 441.2 1479.0 441.5 1479.0 441.9C1479.0 442.4 1479.3 442.9 1480.0 443.5C1480.6 444.0 1481.0 444.6 1481.0 444.9C1481.0 445.7 1484.3 449.0 1485.1 449.0C1485.4 449.0 1486.0 449.4 1486.5 450.0C1487.1 450.7 1487.6 451.0 1488.1 451.0C1488.5 451.0 1488.8 451.2 1489.0 451.5C1489.2 451.8 1489.5 452.0 1490.0 452.0C1490.5 452.0 1490.8 452.2 1491.0 452.5C1491.2 452.9 1491.5 453.0 1492.5 453.0C1493.5 453.0 1493.8 453.1 1494.0 453.5C1494.2 453.8 1494.5 454.0 1495.0 454.0C1495.5 454.0 1495.8 454.2 1496.0 454.5C1496.2 454.9 1496.5 455.0 1497.5 455.0C1498.5 455.0 1498.8 455.1 1499.0 455.5C1499.2 455.9 1499.5 456.0 1500.5 456.0C1501.5 456.0 1501.8 456.1 1502.0 456.5C1502.2 456.9 1502.5 457.0 1503.5 457.0C1504.5 457.0 1504.8 457.1 1505.0 457.5C1505.2 457.9 1505.5 458.0 1506.5 458.0C1507.5 458.0 1507.8 458.1 1508.0 458.5C1508.2 458.8 1508.5 459.0 1509.0 459.0C1509.5 459.0 1509.8 459.2 1510.0 459.5C1510.2 459.8 1510.5 460.0 1510.9 460.0C1511.3 460.0 1512.0 460.5 1513.3 461.7L1515.0 463.5L1515.0 467.1C1515.0 470.5 1515.0 470.8 1514.5 471.0C1514.2 471.2 1514.0 471.5 1514.0 471.9C1514.0 472.3 1513.5 473.0 1512.3 474.3C1510.6 475.9 1510.5 476.0 1509.4 476.0C1508.5 476.0 1508.2 476.1 1508.0 476.5C1507.7 477.0 1507.5 477.0 1503.5 477.0C1499.5 477.0 1499.3 477.0 1499.0 476.5C1498.8 476.1 1498.5 476.0 1497.6 476.0C1496.5 476.0 1496.4 475.9 1493.7 473.3C1491.1 470.6 1491.0 470.5 1491.0 469.4C1491.0 468.5 1490.9 468.2 1490.5 468.0C1490.1 467.8 1490.0 467.4 1490.0 466.4C1489.9 465.2 1489.9 465.1 1489.1 465.0C1488.5 465.0 1488.2 465.1 1488.0 465.5C1487.8 465.9 1487.5 466.0 1486.0 466.0C1484.5 466.0 1484.2 466.1 1484.0 466.5C1483.8 466.9 1483.5 467.0 1482.0 467.0C1480.5 467.0 1480.2 467.1 1480.0 467.5C1479.8 467.9 1479.5 468.0 1478.0 468.0C1476.5 468.0 1476.2 468.1 1476.0 468.5C1475.9 468.8 1475.4 469.0 1474.9 469.0L1474.1 469.1L1474.1 470.9C1474.0 472.5 1474.0 472.8 1474.5 473.0C1474.9 473.2 1475.0 473.5 1475.0 474.5C1475.0 475.5 1475.1 475.8 1475.5 476.0C1475.8 476.2 1476.0 476.5 1476.0 477.0C1476.0 477.5 1476.2 477.8 1476.5 478.0C1476.8 478.2 1477.0 478.5 1477.0 478.9C1477.0 479.4 1477.3 479.9 1478.0 480.5C1478.6 481.0 1479.0 481.6 1479.0 481.9C1479.0 482.7 1483.3 487.0 1484.1 487.0C1484.4 487.0 1485.0 487.4 1485.5 488.0C1486.3 488.9 1486.5 489.0 1487.6 489.0C1488.5 489.0 1488.8 489.1 1489.0 489.5C1489.2 489.8 1489.5 490.0 1490.0 490.0C1490.5 490.0 1490.8 490.2 1491.0 490.5C1491.2 490.9 1491.5 491.0 1493.0 491.0C1494.5 491.0 1494.8 491.1 1495.0 491.5C1495.3 492.0 1495.5 492.0 1503.5 492.0C1511.5 492.0 1511.7 492.0 1512.0 491.5ZM990.3 490.3L991.0 489.5L991.1 475.3L991.1 461.1L995.5 461.1L999.9 461.1L1000.0 461.9C1000.0 462.4 1000.2 462.9 1000.5 463.0C1000.8 463.2 1001.0 463.5 1001.0 464.0C1001.0 464.5 1001.2 464.8 1001.5 465.0C1001.8 465.2 1002.0 465.5 1002.0 466.0C1002.0 466.5 1002.2 466.8 1002.5 467.0C1002.8 467.2 1003.0 467.5 1003.0 468.0C1003.0 468.5 1003.2 468.8 1003.5 469.0C1003.8 469.2 1004.0 469.5 1004.0 470.0C1004.0 470.5 1004.2 470.8 1004.5 471.0C1004.9 471.2 1005.0 471.5 1005.0 472.5C1005.0 473.5 1005.1 473.8 1005.5 474.0C1005.8 474.2 1006.0 474.5 1006.0 475.0C1006.0 475.5 1006.2 475.8 1006.5 476.0C1006.8 476.2 1007.0 476.5 1007.0 477.0C1007.0 477.5 1007.2 477.8 1007.5 478.0C1007.8 478.2 1008.0 478.5 1008.0 479.0C1008.0 479.5 1008.2 479.8 1008.5 480.0C1008.8 480.2 1009.0 480.5 1009.0 481.0C1009.0 481.5 1009.2 481.8 1009.5 482.0C1009.8 482.2 1010.0 482.5 1010.0 483.0C1010.0 483.5 1010.2 483.8 1010.5 484.0C1010.8 484.2 1011.0 484.5 1011.0 485.0C1011.0 485.5 1011.2 485.8 1011.5 486.0C1011.9 486.2 1012.0 486.5 1012.0 487.4C1012.0 488.4 1012.1 488.6 1013.2 489.8L1014.5 491.0L1023.2 490.9L1031.9 490.9L1032.0 489.6C1032.0 488.5 1031.9 488.2 1031.5 488.0C1031.2 487.8 1031.0 487.5 1031.0 487.0C1031.0 486.5 1030.8 486.2 1030.5 486.0C1030.2 485.8 1030.0 485.5 1030.0 485.0C1030.0 484.5 1029.8 484.2 1029.5 484.0C1029.2 483.8 1029.0 483.5 1029.0 483.0C1029.0 482.5 1028.8 482.2 1028.5 482.0C1028.2 481.8 1028.0 481.5 1028.0 481.0C1028.0 480.5 1027.8 480.2 1027.5 480.0C1027.2 479.8 1027.0 479.5 1027.0 479.0C1027.0 478.5 1026.8 478.2 1026.5 478.0C1026.2 477.8 1026.0 477.5 1026.0 477.0C1026.0 476.5 1025.8 476.2 1025.5 476.0C1025.2 475.8 1025.0 475.5 1025.0 475.0C1025.0 474.5 1024.8 474.2 1024.5 474.0C1024.2 473.8 1024.0 473.5 1024.0 473.0C1024.0 472.5 1023.8 472.2 1023.5 472.0C1023.2 471.8 1023.0 471.5 1023.0 471.0C1023.0 470.5 1022.8 470.2 1022.5 470.0C1022.2 469.8 1022.0 469.5 1022.0 469.0C1022.0 468.5 1021.8 468.2 1021.5 468.0C1021.2 467.8 1021.0 467.5 1021.0 467.0C1021.0 466.5 1020.8 466.2 1020.5 466.0C1020.2 465.8 1020.0 465.5 1020.0 465.0C1020.0 464.5 1019.8 464.2 1019.5 464.0C1019.2 463.8 1019.0 463.5 1019.0 463.0C1019.0 462.5 1018.8 462.2 1018.5 462.0C1018.2 461.8 1018.0 461.5 1018.0 461.0C1018.0 460.5 1017.8 460.2 1017.5 460.0C1017.2 459.8 1017.0 459.5 1017.0 459.0C1017.0 458.5 1016.8 458.2 1016.5 458.0C1016.1 457.8 1016.0 457.5 1016.0 456.9C1016.1 456.2 1016.2 456.1 1017.4 456.0C1018.4 456.0 1018.7 455.8 1019.5 455.0C1020.0 454.4 1020.7 454.0 1021.0 454.0C1021.8 454.0 1025.0 450.7 1025.0 449.9C1025.0 449.5 1025.2 449.2 1025.5 449.0C1025.8 448.8 1026.0 448.5 1026.0 448.0C1026.0 447.5 1026.2 447.2 1026.5 447.0C1026.8 446.8 1027.0 446.5 1027.0 446.0C1027.0 445.5 1027.2 445.2 1027.5 445.0C1027.9 444.8 1028.0 444.5 1028.0 443.5C1028.0 442.5 1028.1 442.2 1028.5 442.0C1028.9 441.8 1029.0 441.5 1029.0 439.5C1029.0 437.5 1029.1 437.2 1029.5 437.0C1030.0 436.8 1030.0 436.5 1030.0 433.0C1030.0 429.5 1030.0 429.2 1029.5 429.0C1029.1 428.8 1029.0 428.5 1029.0 426.5C1029.0 424.5 1028.9 424.2 1028.5 424.0C1028.1 423.8 1028.0 423.5 1028.0 422.5C1028.0 421.5 1027.9 421.2 1027.5 421.0C1027.2 420.8 1027.0 420.5 1027.0 420.0C1027.0 419.5 1026.8 419.2 1026.5 419.0C1026.2 418.8 1026.0 418.5 1026.0 418.1C1026.0 417.3 1020.8 412.0 1019.9 412.0C1019.6 412.0 1019.0 411.6 1018.5 411.0C1017.9 410.3 1017.4 410.0 1016.9 410.0C1016.5 410.0 1016.2 409.8 1016.0 409.5C1015.8 409.1 1015.5 409.0 1014.5 409.0C1013.5 409.0 1013.2 408.9 1013.0 408.5C1012.8 408.1 1012.5 408.0 1011.0 408.0C1009.5 408.0 1009.2 407.9 1009.0 407.5C1008.7 407.0 1008.5 407.0 992.1 407.0L975.5 407.0L974.7 407.7L974.0 408.5L974.0 449.0L974.0 489.5L974.7 490.3L975.4 491.0L982.5 491.0L989.5 491.0L990.3 490.3ZM1107.3 490.3L1108.0 489.5L1107.9 482.8L1107.9 476.1L1107.1 476.0C1106.6 476.0 1106.1 475.8 1106.0 475.5C1105.7 475.0 1105.3 475.0 1090.9 474.9L1076.1 474.9L1076.1 465.5L1076.1 456.1L1089.3 456.1L1102.5 456.0L1103.3 455.3L1104.0 454.5L1104.0 448.0L1104.0 441.5L1103.3 440.7L1102.5 440.0L1089.3 439.9L1076.1 439.9L1076.1 431.0L1076.1 422.1L1091.3 422.1L1106.5 422.0L1107.3 421.3L1108.0 420.5L1108.0 414.5L1108.0 408.5L1107.3 407.7L1106.5 407.0L1083.0 407.0L1059.5 407.0L1058.7 407.7L1058.0 408.5L1058.0 449.0L1058.0 489.5L1058.7 490.3L1059.4 491.0L1083.0 491.0L1106.5 491.0L1107.3 490.3ZM1412.0 476.0L1412.1 461.1L1416.3 461.1L1420.5 461.0L1421.3 461.7C1421.9 462.3 1422.0 462.7 1422.0 463.6C1422.0 464.5 1422.1 464.8 1422.5 465.0C1422.8 465.2 1423.0 465.5 1423.0 466.0C1423.0 466.5 1423.2 466.8 1423.5 467.0C1423.8 467.2 1424.0 467.5 1424.0 468.0C1424.0 468.5 1424.2 468.8 1424.5 469.0C1424.8 469.2 1425.0 469.5 1425.0 470.0C1425.0 470.5 1425.2 470.8 1425.5 471.0C1425.8 471.2 1426.0 471.5 1426.0 472.0C1426.0 472.5 1426.2 472.8 1426.5 473.0C1426.8 473.2 1427.0 473.5 1427.0 474.0C1427.0 474.5 1427.2 474.8 1427.5 475.0C1427.8 475.2 1428.0 475.5 1428.0 476.0C1428.0 476.5 1428.2 476.8 1428.5 477.0C1428.9 477.2 1429.0 477.5 1429.0 478.5C1429.0 479.5 1429.1 479.8 1429.5 480.0C1429.8 480.2 1430.0 480.5 1430.0 481.0C1430.0 481.5 1430.2 481.8 1430.5 482.0C1430.8 482.2 1431.0 482.5 1431.0 483.0C1431.0 483.5 1431.2 483.8 1431.5 484.0C1431.9 484.2 1432.0 484.5 1432.0 485.5C1432.0 486.5 1432.1 486.8 1432.5 487.0C1432.8 487.2 1433.0 487.5 1433.0 487.9C1433.0 488.3 1433.4 488.9 1434.2 489.8L1435.5 491.0L1443.5 491.0L1451.5 491.0L1452.3 490.3C1453.1 489.5 1453.2 489.1 1452.5 488.9C1452.1 488.8 1452.0 488.6 1452.0 488.0C1452.0 487.5 1451.8 487.2 1451.5 487.0C1451.1 486.8 1451.0 486.5 1451.0 485.5C1451.0 484.5 1450.9 484.2 1450.5 484.0C1450.2 483.8 1450.0 483.5 1450.0 483.0C1450.0 482.5 1449.8 482.2 1449.5 482.0C1449.2 481.8 1449.0 481.5 1449.0 481.0C1449.0 480.5 1448.8 480.2 1448.5 480.0C1448.2 479.8 1448.0 479.5 1448.0 479.0C1448.0 478.5 1447.8 478.2 1447.5 478.0C1447.2 477.8 1447.0 477.5 1447.0 477.0C1447.0 476.5 1446.8 476.2 1446.5 476.0C1446.2 475.8 1446.0 475.5 1446.0 475.0C1446.0 474.5 1445.8 474.2 1445.5 474.0C1445.2 473.8 1445.0 473.5 1445.0 473.0C1445.0 472.5 1444.8 472.2 1444.5 472.0C1444.1 471.8 1444.0 471.5 1444.0 470.5C1444.0 469.5 1443.9 469.2 1443.5 469.0C1443.2 468.8 1443.0 468.5 1443.0 468.0C1443.0 467.5 1442.8 467.2 1442.5 467.0C1442.2 466.8 1442.0 466.5 1442.0 466.0C1442.0 465.5 1441.8 465.2 1441.5 465.0C1441.2 464.8 1441.0 464.5 1441.0 464.0C1441.0 463.5 1440.8 463.2 1440.5 463.0C1440.2 462.8 1440.0 462.5 1440.0 462.0C1440.0 461.5 1439.8 461.2 1439.5 461.0C1439.2 460.8 1439.0 460.5 1439.0 460.0C1439.0 459.5 1438.8 459.2 1438.5 459.0C1438.1 458.8 1438.0 458.5 1438.0 457.4C1438.1 456.2 1438.2 456.1 1438.9 456.0C1439.4 456.0 1439.9 455.6 1440.5 455.0C1441.0 454.4 1441.7 454.0 1442.0 454.0C1442.7 454.0 1446.0 450.7 1446.0 449.9C1446.0 449.6 1446.4 449.0 1447.0 448.5C1447.7 447.9 1448.0 447.4 1448.0 446.9C1448.0 446.5 1448.2 446.2 1448.5 446.0C1448.9 445.8 1449.0 445.5 1449.0 444.5C1449.0 443.5 1449.1 443.2 1449.5 443.0C1450.0 442.8 1450.0 442.5 1450.0 440.0C1450.0 437.5 1450.0 437.2 1450.5 437.0C1451.0 436.8 1451.0 436.5 1451.0 433.0C1451.0 429.5 1451.0 429.2 1450.5 429.0C1450.1 428.8 1450.0 428.5 1450.0 426.5C1450.0 424.5 1449.9 424.2 1449.5 424.0C1449.1 423.8 1449.0 423.5 1449.0 422.5C1449.0 421.5 1448.9 421.2 1448.5 421.0C1448.2 420.8 1448.0 420.5 1448.0 420.0C1448.0 419.5 1447.8 419.2 1447.5 419.0C1447.2 418.8 1447.0 418.5 1447.0 418.1C1447.0 417.3 1441.8 412.0 1440.9 412.0C1440.6 412.0 1440.0 411.6 1439.5 411.0C1438.9 410.3 1438.4 410.0 1437.9 410.0C1437.5 410.0 1437.2 409.8 1437.0 409.5C1436.8 409.1 1436.5 409.0 1435.5 409.0C1434.5 409.0 1434.2 408.9 1434.0 408.5C1433.8 408.1 1433.5 408.0 1432.0 408.0C1430.5 408.0 1430.2 407.9 1430.0 407.5C1429.7 407.0 1429.5 407.0 1413.1 407.0L1396.5 407.0L1395.7 407.7L1395.0 408.5L1395.0 449.6C1395.0 472.2 1395.1 490.7 1395.2 490.8C1395.3 490.9 1399.1 491.0 1403.6 490.9L1411.9 490.9L1412.0 476.0ZM1607.9 483.7L1608.0 476.5L1607.3 475.7L1606.5 475.0L1591.8 474.9L1577.1 474.9L1577.1 465.5L1577.1 456.1L1590.8 456.1L1604.5 456.0L1605.3 455.3L1606.0 454.5L1606.0 448.0L1606.0 441.5L1605.3 440.7L1604.5 440.0L1590.8 439.9L1577.1 439.9L1577.1 431.7L1577.0 423.5L1577.7 422.7L1578.5 422.0L1593.2 421.9L1607.9 421.9L1607.9 414.5L1607.9 407.1L1584.7 407.1L1561.5 407.0L1560.7 407.7L1560.0 408.5L1560.0 449.0L1560.0 489.5L1560.7 490.3L1561.4 491.0L1584.6 490.9L1607.9 490.9L1607.9 483.7ZM1244.0 476.5C1243.8 476.1 1243.5 476.0 1242.6 476.0C1241.5 476.0 1241.4 475.9 1239.2 473.8C1237.6 472.1 1237.0 471.3 1237.0 470.9C1237.0 470.5 1236.8 470.2 1236.5 470.0C1236.1 469.8 1236.0 469.5 1236.0 468.5C1236.0 467.5 1235.9 467.2 1235.5 467.0C1235.0 466.8 1235.0 466.5 1235.0 463.0C1235.0 459.5 1235.0 459.2 1234.5 459.0C1234.0 458.7 1234.0 458.5 1234.0 449.5C1234.0 440.5 1234.0 440.3 1234.5 440.0C1235.0 439.8 1235.0 439.5 1235.0 436.0C1235.0 432.5 1235.0 432.2 1235.5 432.0C1235.9 431.8 1236.0 431.5 1236.0 430.5C1236.0 429.5 1236.1 429.2 1236.5 429.0C1236.8 428.8 1237.0 428.5 1237.0 428.0C1237.0 427.5 1237.2 427.2 1237.5 427.0C1237.8 426.8 1238.0 426.5 1238.0 426.1C1238.0 425.2 1240.2 423.0 1241.1 423.0C1241.5 423.0 1241.8 422.8 1242.0 422.5C1242.2 422.1 1242.5 422.0 1244.0 422.0C1245.5 422.0 1245.8 421.9 1246.0 421.5C1246.2 421.2 1246.5 421.0 1247.0 421.0C1247.5 421.0 1247.8 421.2 1248.0 421.5C1248.2 421.9 1248.5 422.0 1250.0 422.0C1251.5 422.0 1251.8 422.1 1252.0 422.5C1252.2 422.8 1252.5 423.0 1252.9 423.0C1253.8 423.0 1257.0 426.2 1257.0 427.1C1257.0 427.5 1257.2 427.8 1257.5 428.0C1257.9 428.2 1258.0 428.5 1258.0 430.0C1258.0 431.5 1258.1 431.8 1258.5 432.0C1259.0 432.2 1259.0 432.5 1259.0 435.0C1259.0 437.5 1259.0 437.8 1259.5 438.0C1260.0 438.3 1260.0 438.5 1260.0 449.5C1260.0 460.5 1260.0 460.7 1259.5 461.0C1259.0 461.2 1259.0 461.5 1259.0 464.0C1259.0 466.5 1259.0 466.8 1258.5 467.0C1258.1 467.2 1258.0 467.5 1258.0 468.5C1258.0 469.5 1257.9 469.8 1257.5 470.0C1257.2 470.2 1257.0 470.5 1257.0 470.9C1257.0 471.3 1256.4 472.1 1254.8 473.8C1252.6 475.9 1252.5 476.0 1251.4 476.0C1250.5 476.0 1250.2 476.1 1250.0 476.5C1249.8 477.0 1249.5 477.0 1247.0 477.0C1244.5 477.0 1244.2 477.0 1244.0 476.5ZM991.1 445.7C991.0 445.5 991.0 440.1 991.1 433.8L991.1 422.1L997.4 422.1C1003.5 422.0 1003.7 422.0 1004.0 422.5C1004.2 422.9 1004.5 423.0 1005.5 423.0C1006.5 423.0 1006.8 423.1 1007.0 423.5C1007.2 423.8 1007.5 424.0 1007.9 424.0C1008.7 424.0 1010.0 425.3 1010.0 426.1C1010.0 426.5 1010.2 426.8 1010.5 427.0C1010.8 427.2 1011.0 427.5 1011.0 428.0C1011.0 428.5 1011.2 428.8 1011.5 429.0C1012.0 429.3 1012.0 429.5 1012.0 434.5C1012.0 439.5 1012.0 439.7 1011.5 440.0C1011.2 440.2 1011.0 440.5 1011.0 440.9C1011.0 441.8 1008.8 444.0 1007.9 444.0C1007.5 444.0 1007.2 444.2 1007.0 444.5C1006.8 444.9 1006.5 445.0 1005.5 445.0C1004.5 445.0 1004.2 445.1 1004.0 445.5C1003.7 446.0 1003.5 446.0 997.5 446.0C992.7 446.0 991.2 445.9 991.1 445.7ZM1412.1 445.7C1412.0 445.5 1412.0 440.1 1412.1 433.8L1412.1 422.1L1418.4 422.1C1424.5 422.0 1424.7 422.0 1425.0 422.5C1425.2 422.9 1425.5 423.0 1426.5 423.0C1427.5 423.0 1427.8 423.1 1428.0 423.5C1428.2 423.8 1428.5 424.0 1428.9 424.0C1429.8 424.0 1432.0 426.2 1432.0 427.1C1432.0 427.5 1432.2 427.8 1432.5 428.0C1433.0 428.3 1433.0 428.5 1433.0 433.5C1433.0 438.5 1433.0 438.7 1432.5 439.0C1432.2 439.2 1432.0 439.5 1432.0 440.0C1432.0 440.5 1431.8 440.8 1431.5 441.0C1431.2 441.2 1431.0 441.5 1431.0 441.9C1431.0 442.7 1429.7 444.0 1428.9 444.0C1428.5 444.0 1428.2 444.2 1428.0 444.5C1427.8 444.9 1427.5 445.0 1426.5 445.0C1425.5 445.0 1425.2 445.1 1425.0 445.5C1424.7 446.0 1424.5 446.0 1418.5 446.0C1413.7 446.0 1412.2 445.9 1412.1 445.7Z"/>
</svg>
